<svg id="Layer_1" data-name="Layer 1" xmlns="http://www.w3.org/2000/svg" viewBox="0 0 487.3 673.4"><defs><style>.cls-1{fill:#890e52;}.cls-2{fill:#ff0;}.cls-3{fill:orange;}.cls-4{fill:#e24420;}.cls-5{fill:#f48b22;}.cls-6{fill:#c41010;}</style></defs><title>philigryUL</title><path class="cls-1" d="M99.9.89c-6.9,2.8-11,11-7.5,14.9a5.75,5.75,0,0,0,3.2,2c.7,0,3.4-2.9,6-6.5s5.1-6.5,5.7-6.5c2.4,0,7.8,4.9,10.8,9.9a45.47,45.47,0,0,0,4.9,6.8c1.4,1.3,1.4,2.5-.3,13.6a152.45,152.45,0,0,1-3.4,17.2c-4.5,13.8-15.5,28.4-27.6,36.7-12.9,8.7-29.3,13.2-40.8,11-11.9-2.2-18.2-6.9-22.6-17-2.7-5.9-4-6.5-5.5-2.5-1.7,4.5-.6,12.9,2.1,15.8l2.3,2.5H17.8c-11.2,0-16.2,1.8-16.7,6.2-.5,4.1,8.5,15.1,13.5,16.6a16.44,16.44,0,0,1,6.6,4l2.8,2.9-4.7,1.8c-5,1.9-11.4,6.9-11.4,9,0,2.4,12.9,6.1,27.8,8.1,2.8.3,5.2,1,5.2,1.3,0,1.4-6.6,7.4-12.1,11.1-14,9.6-25.9,28.7-25.9,41.8,0,3.7,1,7,4.4,13.8,5,10.2,7.7,13.4,11.1,13.4,1.4,0,2.5-.1,2.5-.3s-1.1-2.4-2.5-5.1c-4.8-9.4-2.9-23.8,4.8-37.4,3.9-7.1,14.3-18.1,22.2-23.7,5.8-4.2,22.4-13,23-12.3.2.2-2.7,5.1-6.4,10.8-8.7,13.3-13.7,22.8-18.9,36-7.7,19.4-9.7,29.1-15.7,76.4-4.9,39.2-4.7,58.9.7,73.5a55,55,0,0,1,2.5,8.9c.5,3.3.4,3.3-1.7,2.2-1.2-.7-5.8-1.4-10.1-1.7l-7.9-.6-.1,2.9a20.78,20.78,0,0,0,0,3.7c.1.5-2.1,3.3-4.8,6.3-7,7.6-7.8,13.7-2.8,19.1,2.5,2.8,3.7,2.9,7.1.2,3.1-2.5,3.3-4.5.5-7.5L8.7,378l2.1-2.1c2.6-2.6,7.9-2.8,12.7-.5,6,2.8,10.8,9.7,22.5,32.1,14,26.6,17.2,31.8,26.3,41.3,7.3,7.7,13.1,15,10.6,13.5-3.6-2.2,5.6,7.9,14.7,16.1,26,23.4,47.4,36.1,72,42.5,11.4,2.9,12.4,3,28.3,2.6,13.6-.3,17.7-.8,23.5-2.7,13.6-4.4,23.3-10.3,33.6-20.5,10.8-10.8,15.6-23.1,14.6-38-.6-10.5-3-16.3-11.4-28.2-14.7-20.9-18.7-29.6-18.6-40.1,0-3.9-.1-7.2-.4-7.2a25.12,25.12,0,0,0-3.3,1.5c-4.2,2.2-6.2,9.1-5.4,18.3.7,7,.6,7.2-1.6,7.2a31.45,31.45,0,0,1-7.6-1.7c-6.9-2.1-8.8-.9-7.9,5.1,1.3,9,1.6,9.6,3.8,9.6,3.8,0,5-1.4,4.2-4.9s0-3.8,3.3-1.5c1.2.8,2.6,1.2,3.2.9s2.7.3,4.9,1.5c5.1,2.5,7.1,2.5,7.8,0,.9-3.2,2.4-2,8.1,6.4,5.3,8,6.7,11.2,3.3,8.2-5-4.6-24-7.8-33-5.6a27.7,27.7,0,0,0-17.6,14.4c-2.2,4.4-2.6,6.8-2.6,12.9,0,10.2,2.1,15.1,8,18.8,4.4,2.8,10.1,3.9,10.1,1.9,0-.6-.9-1-2-1-4.5,0-8.9-13.9-6.9-21.5,1.6-5.7,10.5-14.5,14.7-14.5,4.4,0,4.7,1.5,1,4.1-7.6,5.2-8.8,6.9-8.8,12.5,0,3.9.9,7.1,3.5,12.5,1.9,4.1,3.5,8.2,3.5,9.3,0,4.9-2.7,10.4-7.5,15.2-6.7,6.7-11.8,8.5-26.5,9.1-19.1.8-35.2-4.1-54.3-16.7-23.1-15.2-41-36.4-55.6-65.6-7.1-14.3-10.6-24.2-16.5-47.5-8-31.8-11.3-58.7-10.3-83.9s3.3-35.5,14.3-67.5c11.4-32.9,15.3-39.5,34.4-58.5,15-15,28.1-23.3,42.8-27.1,16.7-4.2,32.6-.8,41.5,9,3.4,3.8,3.7,4.6,3.7,10.4,0,5.1-.6,7.6-3.5,13.6-1.9,4-3.5,7.9-3.5,8.6,0,3.4,14.2,2.5,21.9-1.5,8-4,14.1-13.1,14.1-21,0-4.9-2.9-12.6-7.1-18.5l-4.1-5.8,2.5-2.4,2.4-2.4,1.8,4.8c3,8.3,6.7,14.3,9.9,16.3,1.7,1,6.3,2.5,10.1,3.4a85.62,85.62,0,0,1,8.9,2.2c1.8.7,1.9.3,1.3-8.7A59,59,0,0,0,236,122c-1.2-2.3-1.8-4.2-1.4-4.2,2,.1,15.3,4,20,5.8,19.9,8,32.6,21.7,36.8,39.4,1.8,7.7,1.9,21.6.3,27.2-1.6,5.4-8.9,12.6-15,15-5.9,2.2-6.1,3.6-.7,3.6,5.1,0,12.9-4.1,21.9-11.3,11.6-9.4,14.5-16,15.6-34.7.5-7.7.2-12.2-.9-17-.9-3.6-1.4-6.6-1.2-6.8s2.2,2,4.6,4.9c5.4,6.3,15.4,14.4,20.5,16.5a51.69,51.69,0,0,0,10.4,2.5,47.74,47.74,0,0,1,11.2,3.1c2.7,1.2,5.1,1.8,5.5,1.5,1.2-1.3.3-8.4-1.6-12.8a64.83,64.83,0,0,0-6.5-10.7c-5.6-7.6-5.8-8.6-1.1-7.8,6.5,1.3,6.5-1.5,0-6.6-2.7-2.1-4.3-2.3-17.5-2.8-14.1-.5-14.7-.6-22-4.1-4.1-2-9.2-5.3-11.2-7.3-4-3.9-5-6.3-2-5.1,6.3,2.5,16.6,5.5,17.5,5.2.6-.2-1.4-1.7-4.4-3.4a38.54,38.54,0,0,1-6.9-4.7c-1.2-1.6-1.1-1.7,1.6-1,1.6.4,8.5,2.7,15.4,5.1a230.28,230.28,0,0,0,23,6.9c14.3,3.4,14.2,3.3,13.5,5.1-1.7,4.6,11.6,9.6,25.5,9.5a423.21,423.21,0,0,0,44-3.2c17.8-2.6,29.9-8.8,42.6-21.4,10.4-10.4,13.8-17.1,13.8-27.1,0-5.7-.5-8-2.8-12.5-6-12-14.7-17.3-24.1-14.9-11.6,3.1-17.9,16.7-11,23.9,2.3,2.4,3.8,2.9,9.7,3.5l7,.7-.7,5.7a55.07,55.07,0,0,1-1.7,9.1c-2.7,8.8-11.7,17.3-23.9,22.9-7,3.2-16.6,5.4-17.5,4-.3-.5.4-3,1.5-5.5a48.5,48.5,0,0,0,2.1-5c0-.2-1.8-.4-4-.4h-4v-7.3c0-4.5-.5-8-1.3-9.1-1.3-1.8-1.5-1.8-4.7-.1-1.9,1-5.9,3.5-9.1,5.6-7.3,5-16.1,8.3-27.8,10.3-19.9,3.4-31.9,1.4-47.9-8-4.2-2.5-4.3-2.7-2.8-4.7,2.8-3.9,7.4-12.1,8.1-14.5,1-3.5-1.1-2.8-10.3,3.5-8.1,5.6-8.7,5.8-14.6,5.7-4.8,0-7.6-.8-12.8-3.3-3.7-1.8-7.4-4.1-8.4-5.2-1.7-1.9-1.5-1.9,8-1.9,7.7,0,10.5-.4,13.6-2,6.6-3.4,12.4-12.8,10.1-16.7-.9-1.6-1-1.6-1.1.5,0,1.9-1.4,3-7.7,5.9-10.2,4.7-17.5,5.4-27.1,2.4-3.9-1.2-7.3-2.5-7.6-2.9s5.7-.7,13.2-.7c13,0,14-.1,18.9-2.7,7.6-4.1,10.8-8.9,8.4-12.7-.7-1.1-2.4-.5-8.6,3.2a70.27,70.27,0,0,1-15.8,6.7c-7.7,2.1-9.6,2.2-29.2,1.6-11.5-.3-27.1-.9-34.5-1.2a105.62,105.62,0,0,0-23.9,1c-12.5,2-24.4,4.6-23.8,5.3.3.2,5-.2,10.5-1.1,11.4-1.8,40.2-2.1,47.2-.5,7.6,1.7,20.2,8.2,23.8,12.3,1.7,2,3.2,4.1,3.2,4.6s-3.3-.7-7.4-2.6c-6.6-3-21.6-7.4-25.5-7.4-2.6,0-.4,1,5.4,2.5,15.4,4.1,33.1,14.3,44.5,25.9,6.9,7.1,7.2,8,1.2,4.3-8-5.1-29.2-15.8-38.8-19.6-10.5-4.1-16.8-5.5-29.4-6.6-14.7-1.3-49.1,4.7-62.8,11-4.5,2.1-8.1,4-7.8,4.2s3.2-.3,6.7-1.2c17.8-4.6,37.9-5.9,47.5-3a52.74,52.74,0,0,1,11.3,5.5c8.7,5.6,20.1,16.9,20.1,19.9,0,2-.8,1.5-7.1-4-9.6-8.7-9.8-8.8-18.2-10.9-7.7-1.9-20.6-3.7-19.7-2.7.3.3,3.8,1.3,7.7,2.1a70.15,70.15,0,0,1,11.8,3.5c4.4,1.9,11.9,7.1,11.2,7.7-.1.2-3.2-.6-6.7-1.7-13.5-4.2-20.2-5.2-34.5-5.1-20.3,0-35,3.6-57,13.7-18.3,8.3-29,17.3-39.5,33-6.6,9.9-7.5,10.9-6.6,7,1.4-5.6,12-19.9,23.5-31.5,6.3-6.3,11.5-11.8,11.5-12.2a4.75,4.75,0,0,1,1-1.5c.5-.5.6-.3.2.4s-.5,1.3-.3,1.3c.5,0,22-13,22.7-13.8.5-.5-2-.1-8,1.3l-2.5.6,2.5-1.8c3.6-2.5,10-9.2,10-10.4,0-.6-1.3-.1-2.9,1a13.85,13.85,0,0,1-3.5,2.1c-.8,0-21.1,20.3-21.1,21.2a3.05,3.05,0,0,1-.9,1.5c-.5.5-.6.3-.2-.5,1.1-1.9-.2-1.5-3.7,1.2-4.7,3.5-16.5,9.2-22.8,10.9a71.47,71.47,0,0,1-27.2,1.8c-9.5-1.1-19.7-4.9-19.7-7.4,0-1.2,1.1-1.1,5.8.6,8.5,2.9,25,2.9,35.7-.2,22.2-6.2,35.2-17.4,46.4-39.8a154.4,154.4,0,0,0,12.54-36.8c2.2-10.1,2.4-10.8,3.5-8.2,3.6,9,3.3,20.4-.9,32.1-3,8.2-2,10.5,1.4,3.1a63.53,63.53,0,0,0,2.7-43.4c-1.1-3.5-1.7-6.9-1.4-7.7a1.58,1.58,0,0,0-1-2l-.07,0a2.62,2.62,0,0,1-1.6-2.3c0-2.7-5.3-10.4-9.6-13.9C113.9,1,105.9-1.51,99.9.89Zm297.6,122.8c-.9,1.4-8.7,3-16.4,3.2s-8.8-.1-7.9-2.6c.5-1.2,2.8-1.5,12.7-1.5C392.6,122.79,397.8,123.19,397.5,123.69Zm-32,3.8c-.7.7-2.6-.7-2.6-1.9,0-.6.6-.6,1.5.2s1.3,1.5,1.1,1.7Zm-199.8-.7c11.1,1.4,18.6,4.3,21.3,8.2,1.2,1.7,1.8,2.9,1.3,2.7s-4.3-2.1-8.4-4.2c-4.9-2.4-8.8-3.7-11.5-3.7-5.2,0-25.3,2.6-30.9,4-25.6,6.5-49.4,27.3-67.9,59.2-13.4,23.4-25.2,67.7-26.4,99.3-.8,22.1,2.4,58,6.7,74.8a58.17,58.17,0,0,1,1.6,7.5c-.2.1-3.3-6.1-6.9-13.8-6.6-13.9-9.1-16.9-10.4-12-1,3.8-2.1,2-3.3-5.8-2.5-16-2.5-44.2,0-41.6.9,1,2.9,14.9,3.9,28.1.6,6.9,1.2,9.8,2.6,11.3,2.8,3.1,3.4.9,2.5-9.5-2.9-32,.4-78.2,7.1-99.2,6.4-20,21.1-52.1,29-63.3,8.9-12.6,38.3-32.4,57.7-38.9,5.2-1.8,13.2-3.2,22.2-4,.9,0,5.3.4,9.8.9Zm116.3,6.6c13.5,8.5,21.9,24.8,21.9,42.4,0,7.7-2,14.1-5.2,16.8-1.4,1.1-1.5,0-1.1-11.1.5-10.8.3-13.4-1.5-19.4-2.4-7.7-7.9-16.9-15.4-25.6-5.36-6.2-5-7.1,1.3-3.1Zm-205.6,4a56.82,56.82,0,0,1-7.5,4.3c-7.4,3.5-23.1,4.3-31.2,1.5l-5.3-1.9,13-.7a194.28,194.28,0,0,0,21.5-2.7c11-2.4,12.1-2.5,9.5-.5Zm279.94,16.5c2.1,1.6,2.6,2.8,2.4,5.3s-.7,3.1-2.8,2.9c-3.7-.2-17.2-6.5-16.2-7.5.4-.4,3.5-1.2,6.8-1.7s6.2-.9,6.5-1A12.24,12.24,0,0,1,356.34,153.89ZM12.7,202.62c.3,3.4,0,4.1-1.2,3.6s-1.6-1.9-1.6-4.6C9.9,196.19,12.34,197.09,12.7,202.62Zm69.4,237.7c11.2,15.9,32.1,36.9,50.1,50.6,4.3,3.2,8.7,5.9,9.8,5.9,1.9,0,19.3,11,18.5,11.7s-16.3-5.8-24.1-10.2c-10.7-6.1-20.1-13.5-33.4-26.1-12.4-11.8-20.1-22.4-28.6-39.4-6.7-13.4-8-17.7-2.3-8C74.5,429,79,436,82.1,440.29Zm161.24,25.87c5.9,3.1,8.1,7.6,8.1,16.1-.1,8.3-1.6,11.8-8.4,18.8-4.2,4.4-15.7,12.4-16.6,11.6-.2-.2,2.2-3.3,5.2-6.9,6.6-7.6,9-12.6,9.9-20.1.5-4.5.3-5.7-1.1-6.9s-1.9-1.2-3,.3a18.69,18.69,0,0,0-1.9,6.9c-.8,5.6-3,10.8-4.7,10.8-.7,0-.8-.7-.4-1.8a48.37,48.37,0,0,0,2.8-12.1c.5-4.1.3-4.7-3.3-8.4-4.5-4.5-4.2-6.4,1.3-9.7C234.7,462.62,237.34,462.89,243.34,466.19Z" transform="translate(0 0)"/><path class="cls-1" d="M138.4,89.39c-3.8,2.4-3.9,2.5-1,1.9a10.56,10.56,0,0,0,4.4-2C144.4,86.69,142.4,86.79,138.4,89.39Z" transform="translate(0 0)"/><path class="cls-2" d="M132.9,148.49c-6.9,3.4-15.4,11.7-18.2,18-1.6,3.7-2.2,6.8-2.2,13.3,0,7.3.4,9.5,3.1,15.7,3.5,8.2,10.7,18.7,15.5,22.8s4.7,1.1-.4-4.3c-5.8-6.2-9.1-11.9-12.3-21.6-5.7-17.1-2.4-28.6,10.4-36.8,5.1-3.2,11.4-3.7,16.1-1.3s5.5,4.9,3,10.7-1.7,7.5,2.6,6.4c3.5-.9,9.4-7.1,9.4-9.8,0-3.4-4.6-10.2-8.7-13.1C146.1,144.89,140.34,145,132.9,148.49Z" transform="translate(0 0)"/><path class="cls-3" d="M350.8,175.79c-6.1,1-12.8,4.1-15.6,7.1-2.3,2.5-4.3,11.6-4.3,19.6,0,2.4-.4,4.3-.9,4.3s-2.5-2.5-4.5-5.5-4.2-5.5-4.9-5.5c-1.6,0-7,3.3-13.9,8.6a28.1,28.1,0,0,0-8.2,9.6c-5.1,10.2-2.9,14,8.8,15.4,6.6.8,7.4,2.7,1.9,4.5-4.3,1.3-13.3,5.7-13.3,6.4,0,.2,1.1,2.8,2.4,5.7a101.63,101.63,0,0,1,4.1,10.1c2.3,6.6,4.3,7.4,10.8,4.4a56.43,56.43,0,0,0,8.6-5.1,21.37,21.37,0,0,1,4.1-2.6c.4,0-.5,3.3-1.8,7.2a51.63,51.63,0,0,0-2.6,13.7c-.1,5.8.1,6.5,2.6,8.4,1.8,1.3,5,2.2,9.8,2.6,6,.6,7.5,1.1,9.1,3.1a12.31,12.31,0,0,1,1.9,3.2c0,.5.9.8,1.9.8,4,0,18.1-19.4,18.1-24.9,0-2-3.8-5.6-7-6.6-1.6-.5-3.5-3.3-2.7-4.1.1-.2,5.1,1.2,11.1,3.1l10.8,3.5,2.8-2c4-2.9,6.4-9.7,5.7-16.3-.6-5.5-9.9-29.3-11.4-29.1-.4.1-2.7.5-5.1.9l-4.3.7,1.6-3.9c4.7-10.8,4.5-15.7-1.3-27.8-3-6.3-4.8-8.8-6.7-9.5a17.23,17.23,0,0,0-2.8-.9C354,175.27,352.41,175.57,350.8,175.79ZM342.4,202a40.33,40.33,0,0,1,1.5,7.7c.1,2.5.2,2.4,3.8-1.7,4.3-5,5.8-4.6,3.5,1s-1,5.6,2.7-.2c3.5-5.4,5.6-6.7,3.9-2.3-.8,2.2-.7,3,.7,4,1.7,1.2,1.6,1.5-.5,5.3-1.2,2.2-1.9,4.4-1.6,5s3.1,1,6.1,1c5.6,0,6.2.6,4.3,4.2-.8,1.5-.8,2.2,0,2.7s-.1,1.6-2,3c-2.2,1.6-2.8,2.6-2,3.4s.7,1.4-.1,2.4-.8,1.7,0,2.5c1.9,1.9,1.4,3-.9,1.8-3.1-1.7-3.4-.5-1,3.5,1.1,2,1.5,3.3.9,2.9s-3.3-2.1-5.7-3.6c-8.1-5.1-10-3.4-7,6.2a44.16,44.16,0,0,1,1.8,12.3v6.2l-1.5-4c-1.7-4.6-4.7-8-6.2-7.1-.6.3-1.3,2.4-1.7,4.6-.6,3.3-1,4-2.5,3.5-1.2-.4-1.9.1-2.3,1.5-.4,1.7-1.2,2.1-3.4,1.8-2.5-.3-2.8-.7-2.7-3.8a76.56,76.56,0,0,1,2.4-12c3.3-12.1,3-12.5-6.5-8.9-6,2.4-8,2.8-9.1,1.8s-1.8-.9-2.9.1c-2.9,2.4-2.8,0,.1-3.1,2.7-2.9,2.8-3.1,1.1-4.4-1.6-1.1-1.3-1.6,3.8-4.4,3-1.7,5.5-3.5,5.5-4,0-1.3-2.7-2.1-7.5-2.1a25.48,25.48,0,0,1-5.9-.6c-2-.8-1.1-2.4,1.5-2.4a1.85,1.85,0,0,0,.9-3.5c-2.2-1.3-.9-2.3,2-1.5,4.6,1.3,4.9-.9.5-4.7l-3.8-3.3h3.1c2.2,0,3.2-.5,3.2-1.6s.6-1.4,2-.9,2,.2,2-1.1,1.3-.5,4.8,2.9c2.6,2.6,5.3,4.7,6,4.7.9,0,1.2-2.7,1.2-9.6,0-8.2.2-9.5,1.5-9a1.63,1.63,0,0,0,2.1-.9C339.5,194.89,340.7,196.49,342.4,202Zm34.7,40.9c-.5,6.3-1.9,5.4-2.7-1.6-.5-4-.4-6,.6-7.2,1.3-1.4,1.4-1.3,1.9,1.2a44.87,44.87,0,0,1,.2,7.6Z" transform="translate(0 0)"/><path class="cls-4" d="M335.4,221.49c-4.8,2-5.6,3-4.9,6.3.8,3.6,7.8,10,10.8,10,2.1,0,3.1-1,5.1-5l2.5-5-2-4C344.6,219.19,342.2,218.79,335.4,221.49Z" transform="translate(0 0)"/><path class="cls-5" d="M199.9,192.19c-17.6,3.4-30.3,9.4-40.8,19a107.48,107.48,0,0,1-11.2,9.1c-5,3.2-8.5,7.9-14.9,20.4-6,11.6-8.8,19.3-13.5,36.1-1.9,6.9-4.3,14.7-5.3,17.5-1.7,4.6-1.8,6.8-1.2,28,.6,20.5,1,24.4,3.7,36,5.2,22.7,11.5,36.7,23.8,53,11,14.8,35.7,35.5,42.2,35.5,1.6,0,3.6,1.3,5.7,3.7,1.9,2.2,3.6,3.4,4.3,2.9,1.4-.9,1.6-3.6.2-3.6-.5,0-6.3-4-12.8-8.9-17.6-13.3-33-30.3-39.4-43.6a70.55,70.55,0,0,0-5.2-9.2c-2.6-3.6-4.9-14.2-6.7-30.5-1.2-10.7-.1-28.1,2.7-41.7,5.1-25.5,23.6-40.6,40.3-33.1a27.11,27.11,0,0,0,5.3,2c1.6,0,.4-6.8-2.2-12.8-2.7-6.3-5-7.7-14.9-9.3-3.9-.7-7.1-1.5-7.1-1.9,0-1.8,8.5-13.3,12.5-16.8,10.6-9.3,33.5-15.8,36.5-10.2,1.7,3.1,7.5,4.2,14.5,2.5,7.7-1.8,12.7-1.9,17-.1,3.9,1.7,4.1,1.6,2.1-2.2-2.2-4.2-9.6-10.9-14.6-13.1s-17.8-2.8-26.6-1.2c-16.6,3.2-36.2,16.5-48.4,33-2.5,3.3-4.8,6.1-5.2,6.1-1.1,0,2.1-6.9,5.9-12.9,11.8-18.5,43.7-38.1,62-38.1a39.71,39.71,0,0,1,10.7,2.4c14.1,5.1,23.7,13.1,27.5,23,2.2,5.6,2.7,4.5,1-1.9s-6.5-12.2-14.5-18.1c-10.2-7.5-9.8-9.3,1.1-5.5,3,1.1,5.5,1.8,5.5,1.6a17.55,17.55,0,0,0-3.6-2.5c-1.9-1.3-3.9-3.3-4.4-4.5-1.1-3-9.5-5.8-16.9-5.7-7,.1-25,5.2-34.9,9.7-8.5,4-18.5,11.7-25.5,19.9-9.9,11.5-24.3,35.4-27.7,45.8-.6,2.1-1.6,3.8-2.2,3.8-2.2,0,2.5-16.9,7.7-27.2,7.7-15.4,32-39.6,48.4-48.2,30.2-15.9,65.7-6.5,79.3,21,5.4,11.1,5.8,15.9,2.3,28.4-3,10.7-5.3,15-9.8,18.4-3.8,2.9-11.7,5.1-15.1,4.2-2.4-.6-2.4-.7-.9-3.7,2.3-4.5,2-18.5-.4-21.2-5.3-5.8-19.2-9.3-25.1-6.3-9.5,4.9-14.3,22.2-9.1,33.5,4.1,9.1,11.5,16.9,19.8,20.8,4.8,2.3,6.2,2.5,13.2,2,12.6-.8,24.6-7.4,30-16.5,1.3-2,2.4-3.9,2.5-4a48,48,0,0,1,6.7,4.6c7.1,5.4,12.5,7.7,15.7,6.7s2.4-2.1-3.3-5.3a39.41,39.41,0,0,1-8.5-6.6c-2.6-3-3.2-4.5-3.2-8.4,0-4.8,2.3-9.7,4.1-8.7a3.59,3.59,0,0,1,.9,2.5c0,4.8,5.7,17,7.9,17,.5,0-1.1-5.5-3.5-12.3s-6.3-18.6-8.8-26.5c-5.2-16.5-10.1-24.9-19.3-32.8-10.4-9-16-12.4-23.1-14C223.7,191.09,207.7,190.62,199.9,192.19Zm27.9,52.2c3.2,1.3,4.3,2.4,5.6,5.9.9,2.3,1.5,5.3,1.3,6.5-.4,3.2-2.8,3.8-2.8.8,0-5.2-9.5-7.5-15.5-3.8-7.5,4.6-10.2,12.6-7.1,21.2,1.6,4.6.7,4.8-2.7.8s-4.1-8-2.7-14.3c2.3-9.6,6.5-14.7,14.1-17.1,5.8-1.77,5.34-1.77,9.8,0Zm-60.4,27.8c2.3,1,3.5,2.2,3.5,3.4,0,1.8-.6,1.9-6.4,1.5-8.5-.7-15,2.2-22.8,10.3-6.8,6.8-7.6,5.4-1.9-3.3C147.2,272.62,157.6,268.19,167.4,272.19Z" transform="translate(0 0)"/><path class="cls-2" d="M84.4,213c-15.7,8.1-19.7,26.7-10,46.5,3.9,7.9,15.9,21.5,24.6,27.9,8.1,5.9,6.6,3.2-1.6-3.1-14-10.7-21.4-21.1-23.7-33.1a36.91,36.91,0,0,1,3-22.6c2.6-5.2,2.8-5.3,7.4-5.6,4.1-.3,4.7,0,5.3,2,1.3,4,3.6,5.8,7.5,5.8,5.1,0,6.5-2,6.5-9.2,0-5.3-.3-6.2-2.8-8.4C97,210.09,90.1,210,84.4,213Z" transform="translate(0 0)"/><path class="cls-3" d="M246.2,214.49c2.9,3.2,8.4,15.4,9.7,21.7l.8,4.1.1-3.7c.2-7.6-8.3-24.8-12.3-24.8C244,211.79,244.7,213,246.2,214.49Z" transform="translate(0 0)"/><path class="cls-3" d="M256,244.79c-.2,3-3.2,9.5-6.3,13.2-2.8,3.6-1.7,4.7,1.6,1.5,2.7-2.7,6-12.6,5.3-15.5C256.34,242.89,256.1,243.09,256,244.79Z" transform="translate(0 0)"/><path class="cls-6" d="M188.2,301.29c-7.4,3.6-10.7,6.1-17.5,12.7-9.9,9.9-14.3,17-16.3,26.4-1.9,8.9-1.9,15.2,0,25.3,3.9,20.4,14.3,39.1,28.4,50.9,7.5,6.2,19.9,12.5,23.9,12,2.3-.3,1.1-1.2-7.3-5.8A71.09,71.09,0,0,1,181.2,409c-4.6-4.6-8.3-8.6-8.3-9s2.6-.7,5.8-.7c7.4,0,12-2.6,15-8.5,2.3-4.7,2.7-6.7,1.4-8.7-.6-.9-2.3-.4-6.6,1.7-7.3,3.7-14,4-18,.9-2.9-2.3-8.3-12.4-11.1-20.7-1.8-5.5-1.6-9.1.6-19.7,1.8-8.2,7.4-19,11.6-22.3,5.4-4.2,14.9-8.8,21.1-10.1,7.3-1.5,7.9-1.4,10.8,1.4l2.5,2.5-.7-3.6c-.5-2.9-.4-3.6.7-3.2,2,.6,4.1,5.4,4.7,10.6.4,3.9.3,4.4-1.4,4-1.3-.2-2-1.3-2.2-3.6-.3-3.3-2.2-3.6-2.2-.3,0,2.2-3.1,5.1-5.4,5.1-2.5,0-3,2.4-1.2,5.8,4,7.7,11.1,9.3,18.9,4.1,10.6-7,11.5-19.6,2-28.8-5.3-5.1-13.4-9.1-18.3-9.1C198.8,296.79,193.8,298.62,188.2,301.29Z" transform="translate(0 0)"/><path class="cls-2" d="M67.4,307.39c-7,3.6-10.2,8.7-11.1,17.6-.5,5.1-.3,7.3,1,9.8a16.31,16.31,0,0,1,1.6,6c0,2.4,3.7,8.7,4.5,7.8.2-.2-.5-3.5-1.6-7.3-2.3-8.6-2.5-19.2-.3-22.3a15.66,15.66,0,0,1,4.5-3.8c2.9-1.5,3-1.4,4,1.5,1.8,5.2,10.1,6.3,13.1,1.7,1.8-2.7.7-6.5-2.7-9.5C76.34,305.39,72.2,304.89,67.4,307.39Z" transform="translate(0 0)"/><path class="cls-2" d="M67.8,356.49c2.8,5.2,12.6,10.5,22.6,12.2,10.5,1.7,18.5,2.2,18.5,1.3,0-1.3-3.1-2.4-18-6.8a141.17,141.17,0,0,1-17.2-6C68,354.29,66.5,354.09,67.8,356.49Z" transform="translate(0 0)"/><path class="cls-2" d="M78.8,397.69c-2.4,2.4-2.8,3.5-2.3,6.3,2.1,11.9,6,18.5,12.9,21.8,4.2,2,5.7,2.2,14.4,1.7,9-.5,32.8-5.3,31.7-6.4-.3-.3-5.7.3-12,1.2-14.4,2.2-25.5,1.7-31.7-1.3-3.4-1.7-4.9-3.2-6.7-6.9-2.8-6.1-2.8-6.3.7-6.3s6.1-3.1,6.1-7.5c0-4.1-1.6-5.5-6.3-5.5A8.37,8.37,0,0,0,78.8,397.69Z" transform="translate(0 0)"/><path class="cls-4" d="M57.5,447.79c.4,2.7.4,5,.1,5a69.8,69.8,0,0,1-6.8-3c-6.7-3.1-19.4-5.8-22.2-4.7-2.2.8-2.1,3.1.4,11.2,1.6,5.2,3,7.6,6.5,11,4,3.7,4.3,4.4,2.7,4.9-3,.9-10.9,9.5-9.8,10.5.9.8,12,4.1,13.9,4.1.3,0,.6-1.1.6-2.5,0-2.7.9-3.2,2.8-1.3.6.6,1.3,1,1.4.7s1-1.8,1.9-3.4,2.1-2.9,2.8-2.7.4-1-.8-2.7c-3.4-4.7-2.5-6.4,2.2-3.9,2.1,1.1,2.1,1.1.4-1.3-.9-1.3-2.4-3.4-3.3-4.6-2.3-3.2-.9-4.6,2.6-2.8a13.9,13.9,0,0,0,4.7,1.5,13.47,13.47,0,0,1,5.1,2c4.2,2.6,4.5,2.5,4-.5s.1-3.1,3.5-.5,4.2,2.5,2.3-.2c-1.6-2.3-2.2-9.8-.8-9.8a19,19,0,0,1,3.2,1.5c4.5,2.6,4.3,1.6-1-4.5-5.8-6.7-9.4-9-14-9H56.8Z" transform="translate(0 0)"/><path class="cls-2" d="M118.6,454.39c-1.2,1.2-.8,10.3.7,13.8,2.8,6.7,17.9,15.7,27.5,16.4,7.2.5,14.8-2.1,24.1-8.3,7.6-5.1,21.1-17.6,19.5-18.1-.5-.2-4.5,3-8.8,7.1-8.4,8.1-12.1,10.4-21.2,13-9.7,2.9-26.1.1-31.5-5.4-2.6-2.6-2.7-2.8-1.6-8.9.7-4.4.7-6.8,0-8C126.2,454.29,119.9,453.09,118.6,454.39Z" transform="translate(0 0)"/><path class="cls-5" d="M53.6,489.29c-18.3,5-29.6,18.2-30.5,35.3-.7,12.4,3.3,20.9,11.9,25.2,5.4,2.8,8.4,2.5,16.4-1.8s8.3-5.1,6.4-12.9c-1.5-6.6-4.4-9.8-9.8-11.3-4.7-1.2-5-1.9-1.8-4.8,7-6.5,17.6-5.2,31.8,4,18.2,11.7,24.7,23.3,40.1,70.8,4.9,15.3,5.7,23.6,3.3,34.6-3.3,15.3-13.1,31.6-21.7,36-3.2,1.7-12.7,1.8-16.2.3-2.1-1-2.3-1.5-1.5-3.6,1.6-4.4,1.1-11.1-1.1-13.3-3.7-3.7-9.8-2.2-12.5,3-8.6,16.7,20.8,29.7,41.7,18.3,6.2-3.3,11.7-10.1,19.2-23.3,6.9-12,8.6-17.3,9.3-28.2.7-9.7-.3-14.6-4.7-25.5-3.4-8.1-3.7-11.8-1.4-15.1l1.5-2.2,7.7,6.1a155.89,155.89,0,0,1,13.9,12.8c7.5,7.9,8.9,7.7,11-1.5,1.9-7.9.4-14.8-5.8-27.3a93.45,93.45,0,0,1-4.6-9.7c.1-.1,3.7.4,8,1.1,9.2,1.4,9.6,1.1,7.8-6.2a51.37,51.37,0,0,0-7.4-15.5c-1.9-2.5-16.7-13.6-16.7-12.5a37.69,37.69,0,0,0,2.1,5.2c2.3,5.2,2.1,6.2-1.2,4.5-2-1.1-2.1-1.1-1.5,1.1,1.9,7.2,1.9,7.1,0,6.7-1-.2-3.7-2.9-5.8-6.1s-4.1-5.5-4.3-5.3,1.1,4.5,3,9.5,3.3,9.1,3.2,9.1-3.7-4.5-8-10-7.9-10-8.2-10c-.6,0,1.6,4,4.9,8.7,4.1,6.1,7.8,14.3,7.8,17.5,0,4.2-1.4,3.4-4.1-2.4a117.53,117.53,0,0,0-7.1-12.5c-4.9-7.5-23.4-31.3-24.4-31.3-.8,0,.3,1.7,6.7,10a124.72,124.72,0,0,1,14.3,25.5l1.7,4-5.6-5.5c-5.8-5.7-6.1-5.8-4.4-1.3.8,2.2-.4,1.4-6-4.1a143.09,143.09,0,0,1-9.8-10.8c-5.7-8-9.7-11.9-15.5-15l-6-3.2,3.4-1.7c4.3-2.2,8.8-6.4,8.8-8.3,0-2.2-4.7-5.4-10.3-7.1C75.4,487.49,60.34,487.49,53.6,489.29Z" transform="translate(0 0)"/></svg>