<?xml version="1.0" encoding="utf-8"?>
<!-- Generator: Adobe Illustrator 23.0.1, SVG Export Plug-In . SVG Version: 6.00 Build 0)  -->
<svg version="1.1" id="Layer_1" xmlns="http://www.w3.org/2000/svg" xmlns:xlink="http://www.w3.org/1999/xlink" x="0px" y="0px"
	 viewBox="0 0 487.2 673" style="enable-background:new 0 0 487.2 673;" xml:space="preserve">
<style type="text/css">
	.st0{fill:#890E52;}
	.st1{fill:#FFFF00;}
	.st2{fill:#FFA500;}
	.st3{fill:#E24420;}
	.st4{fill:#F48B22;}
	.st5{fill:#C41010;}
</style>
<title>philigryLL</title>
<path class="st0" d="M122.3,665c4.3-3.5,9.6-11.2,9.6-13.9c0-1,0.7-1.9,1.6-2.3c0,0,0,0,0.1,0l0,0c0.8-0.3,1.3-1.2,1-2
	s0.3-4.2,1.4-7.7c4.2-14.3,3.3-29.7-2.7-43.4c-3.4-7.4-4.4-5.1-1.4,3.1c4.2,11.7,4.5,23.1,0.9,32.1c-1.1,2.6-1.3,1.9-3.5-8.2
	c-2.6-12.7-6.8-25.1-12.6-36.8c-11.2-22.4-24.2-33.6-46.4-39.8c-10.7-3.1-27.2-3.1-35.7-0.2c-4.7,1.7-5.8,1.8-5.8,0.6
	c0-2.5,10.2-6.3,19.7-7.4c9.1-1.2,18.3-0.5,27.2,1.8c6.3,1.7,18.1,7.4,22.8,10.9c3.5,2.7,4.8,3.1,3.7,1.2c-0.4-0.8-0.3-1,0.2-0.5
	c0.4,0.4,0.8,0.9,0.9,1.5c0,0.9,20.3,21.2,21.1,21.2c1.3,0.5,2.4,1.2,3.5,2.1c1.6,1.1,2.9,1.6,2.9,1c0-1.2-6.4-7.9-10-10.4l-2.5-1.8
	l2.5,0.6c6,1.4,8.5,1.8,8,1.3c-0.7-0.8-22.2-13.8-22.7-13.8c-0.2,0-0.1,0.6,0.3,1.3c0.4,0.7,0.3,0.9-0.2,0.4c-0.4-0.4-0.8-0.9-1-1.5
	c0-0.4-5.2-5.9-11.5-12.2c-11.5-11.6-22.1-25.9-23.5-31.5c-0.9-3.9,0-2.9,6.6,7c10.5,15.7,21.2,24.7,39.5,33
	c22,10.1,36.7,13.7,57,13.7c14.3,0.1,21-0.9,34.5-5.1c3.5-1.1,6.6-1.9,6.7-1.7c0.7,0.6-6.8,5.8-11.2,7.7c-3.8,1.5-7.8,2.7-11.8,3.5
	c-3.9,0.8-7.4,1.8-7.7,2.1c-0.9,1,12-0.8,19.7-2.7c8.4-2.1,8.6-2.2,18.2-10.9c6.3-5.5,7.1-6,7.1-4c0,3-11.4,14.3-20.1,19.9
	c-3.5,2.3-7.3,4.1-11.3,5.5c-9.6,2.9-29.7,1.6-47.5-3c-3.5-0.9-6.4-1.4-6.7-1.2c-0.3,0.2,3.3,2.1,7.8,4.2
	c13.7,6.3,48.1,12.3,62.8,11c12.6-1.1,18.9-2.5,29.4-6.6c9.6-3.8,30.8-14.5,38.8-19.6c6-3.7,5.7-2.8-1.2,4.3
	c-11.4,11.6-29.1,21.8-44.5,25.9c-5.8,1.5-8,2.5-5.4,2.5c3.9,0,18.9-4.4,25.5-7.4c4.1-1.9,7.4-3.1,7.4-2.6s-1.5,2.6-3.2,4.6
	c-3.6,4.1-16.2,10.6-23.8,12.3c-7,1.6-35.8,1.3-47.2-0.5c-5.5-0.9-10.2-1.3-10.5-1.1c-0.6,0.7,11.3,3.3,23.8,5.3
	c7.9,1.2,15.9,1.6,23.9,1c7.4-0.3,23-0.9,34.5-1.2c19.6-0.6,21.5-0.5,29.2,1.6c5.5,1.6,10.8,3.8,15.8,6.7c6.2,3.7,7.9,4.3,8.6,3.2
	c2.4-3.8-0.8-8.6-8.4-12.7c-4.9-2.6-5.9-2.7-18.9-2.7c-7.5,0-13.5-0.3-13.2-0.7s3.7-1.7,7.6-2.9c9.6-3,16.9-2.3,27.1,2.4
	c6.3,2.9,7.7,4,7.7,5.9c0.1,2.1,0.2,2.1,1.1,0.5c2.3-3.9-3.5-13.3-10.1-16.7c-3.1-1.6-5.9-2-13.6-2c-9.5,0-9.7,0-8-1.9
	c1-1.1,4.7-3.4,8.4-5.2c5.2-2.5,8-3.3,12.8-3.3c5.9-0.1,6.5,0.1,14.6,5.7c9.2,6.3,11.3,7,10.3,3.5c-0.7-2.4-5.3-10.6-8.1-14.5
	c-1.5-2-1.4-2.2,2.8-4.7c16-9.4,28-11.4,47.9-8c11.7,2,20.5,5.3,27.8,10.3c3.2,2.1,7.2,4.6,9.1,5.6c3.2,1.7,3.4,1.7,4.7-0.1
	c0.8-1.1,1.3-4.6,1.3-9.1v-7.3h4c2.2,0,4-0.2,4-0.4c-0.6-1.7-1.3-3.4-2.1-5c-1.1-2.5-1.8-5-1.5-5.5c0.9-1.4,10.5,0.8,17.5,4
	c12.2,5.6,21.2,14.1,23.9,22.9c0.8,3,1.4,6,1.7,9.1l0.7,5.7l-7,0.7c-5.9,0.6-7.4,1.1-9.7,3.5c-6.9,7.2-0.6,20.8,11,23.9
	c9.4,2.4,18.1-2.9,24.1-14.9c2.3-4.5,2.8-6.8,2.8-12.5c0-10-3.4-16.7-13.8-27.1c-12.7-12.6-24.8-18.8-42.6-21.4
	c-14.6-1.8-29.3-2.9-44-3.2c-13.9-0.1-27.2,4.9-25.5,9.5c0.7,1.8,0.8,1.7-13.5,5.1c-7.8,1.9-15.5,4.2-23,6.9
	c-6.9,2.4-13.8,4.7-15.4,5.1c-2.7,0.7-2.8,0.6-1.6-1c2.1-1.8,4.4-3.4,6.9-4.7c3-1.7,5-3.2,4.4-3.4c-0.9-0.3-11.2,2.7-17.5,5.2
	c-3,1.2-2-1.2,2-5.1c2-2,7.1-5.3,11.2-7.3c7.3-3.5,7.9-3.6,22-4.1c13.2-0.5,14.8-0.7,17.5-2.8c6.5-5.1,6.5-7.9,0-6.6
	c-4.7,0.8-4.5-0.2,1.1-7.8c2.5-3.3,4.7-6.9,6.5-10.7c1.9-4.4,2.8-11.5,1.6-12.8c-0.4-0.3-2.8,0.3-5.5,1.5c-3.6,1.5-7.4,2.5-11.2,3.1
	c-3.5,0.5-7,1.3-10.4,2.5c-5.1,2.1-15.1,10.2-20.5,16.5c-2.4,2.9-4.4,5.1-4.6,4.9c-0.2-0.2,0.3-3.2,1.2-6.8c1.1-4.8,1.4-9.3,0.9-17
	c-1.1-18.7-4-25.3-15.6-34.7c-9-7.2-16.8-11.3-21.9-11.3c-5.4,0-5.2,1.4,0.7,3.6c6.1,2.4,13.4,9.6,15,15c1.6,5.6,1.5,19.5-0.3,27.2
	c-4.2,17.7-16.9,31.4-36.8,39.4c-4.7,1.8-18,5.7-20,5.8c-0.4,0,0.2-1.9,1.4-4.2c4-7.7,6.2-16.1,6.6-24.7c0.6-9,0.5-9.4-1.3-8.7
	c-2.9,0.9-5.9,1.6-8.9,2.2c-3.8,0.9-8.4,2.4-10.1,3.4c-3.2,2-6.9,8-9.9,16.3l-1.8,4.8l-2.4-2.4l-2.5-2.4l4.1-5.8
	c4.2-5.9,7.1-13.6,7.1-18.5c0-7.9-6.1-17-14.1-21c-7.7-4-21.9-4.9-21.9-1.5c0,0.7,1.6,4.6,3.5,8.6c2.9,6,3.5,8.5,3.5,13.6
	c0,5.8-0.3,6.6-3.7,10.4c-8.9,9.8-24.8,13.2-41.5,9c-14.7-3.8-27.8-12.1-42.8-27.1c-19.1-19-23-25.6-34.4-58.5
	c-11-32-13.3-42.3-14.3-67.5s2.3-52.1,10.3-83.9c5.9-23.3,9.4-33.2,16.5-47.5c14.6-29.2,32.5-50.4,55.6-65.6
	c19.2-12.6,35.3-17.5,54.4-16.7c14.7,0.6,19.8,2.4,26.5,9.1c4.8,4.8,7.5,10.3,7.5,15.2c0,1.1-1.6,5.2-3.5,9.3
	c-2.6,5.4-3.5,8.6-3.5,12.5c0,5.6,1.2,7.3,8.8,12.5c3.7,2.6,3.4,4.1-1,4.1c-4.2,0-13.1-8.8-14.7-14.5c-2-7.6,2.4-21.5,6.9-21.5
	c1.1,0,2-0.4,2-1c0-2-5.7-0.9-10.1,1.9c-5.9,3.7-8,8.6-8,18.8c0,6.1,0.4,8.5,2.6,12.9c3.5,7.1,9.9,12.3,17.6,14.4c9,2.2,28-1,33-5.6
	c3.4-3,2,0.2-3.3,8.2c-5.7,8.4-7.2,9.6-8.1,6.4c-0.7-2.5-2.7-2.5-7.8,0c-2.2,1.2-4.3,1.8-4.9,1.5c-0.6-0.3-2,0.1-3.2,0.9
	c-3.3,2.3-4.1,2-3.3-1.5c0.8-3.5-0.4-4.9-4.2-4.9c-2.2,0-2.5,0.6-3.8,9.6c-0.9,6,1,7.2,7.9,5.1c2.5-0.9,5-1.5,7.6-1.7
	c2.2,0,2.3,0.2,1.6,7.2c-0.8,9.2,1.2,16.1,5.4,18.3c1.1,0.6,2.2,1.1,3.3,1.5c0.3,0,0.4-3.3,0.4-7.2c-0.1-10.5,3.9-19.2,18.6-40.1
	c8.4-11.9,10.8-17.7,11.4-28.2c1-14.9-3.8-27.2-14.6-38c-10.3-10.2-20-16.1-33.6-20.5c-5.8-1.9-9.9-2.4-23.5-2.7
	c-15.9-0.4-16.9-0.3-28.3,2.6c-24.6,6.4-46,19.1-72,42.5c-9.1,8.2-18.3,18.3-14.7,16.1c2.5-1.5-3.3,5.8-10.6,13.5
	C63.2,234,60,239.2,46,265.8c-11.7,22.4-16.5,29.3-22.5,32.1c-4.8,2.3-10.1,2.1-12.7-0.5l-2.1-2.1l2.1-2.2c2.8-3,2.6-5-0.5-7.5
	c-3.4-2.7-4.6-2.6-7.1,0.2c-5,5.4-4.2,11.5,2.8,19.1c2.7,3,4.9,5.8,4.8,6.3c-0.1,1.2-0.1,2.5,0,3.7l0.1,2.9l7.9-0.6
	c4.3-0.3,8.9-1,10.1-1.7c2.1-1.1,2.2-1.1,1.7,2.2c-0.6,3-1.4,6-2.5,8.9c-5.4,14.6-5.6,34.3-0.7,73.5c6,47.3,8,57,15.7,76.4
	c5.2,13.2,10.2,22.7,18.9,36c3.7,5.7,6.6,10.6,6.4,10.8c-0.6,0.7-17.2-8.1-23-12.3c-7.9-5.6-18.3-16.6-22.2-23.7
	c-7.7-13.6-9.6-28-4.8-37.4c1.4-2.7,2.5-4.9,2.5-5.1c0-0.2-1.1-0.3-2.5-0.3c-3.4,0-6.1,3.2-11.1,13.4c-3.4,6.8-4.4,10.1-4.4,13.8
	c0,13.1,11.9,32.2,25.9,41.8c5.5,3.7,12.1,9.7,12.1,11.1c0,0.3-2.4,1-5.2,1.3c-14.9,2-27.8,5.7-27.8,8.1c0,2.1,6.4,7.1,11.4,9
	l4.7,1.8l-2.8,2.9c-1.9,1.8-4.1,3.2-6.6,4c-5,1.5-14,12.5-13.5,16.6c0.5,4.4,5.5,6.2,16.7,6.2h9.4l-2.3,2.5
	c-2.7,2.9-3.8,11.3-2.1,15.8c1.5,4,2.8,3.4,5.5-2.5c4.4-10.1,10.7-14.8,22.6-17c11.5-2.2,27.9,2.3,40.8,11
	c12.1,8.3,23.1,22.9,27.6,36.7c1.5,5.7,2.6,11.4,3.4,17.2c1.7,11.1,1.7,12.3,0.3,13.6c-1.8,2.1-3.5,4.4-4.9,6.8
	c-3,5-8.4,9.9-10.8,9.9c-0.6,0-3.1-2.9-5.7-6.5c-2.6-3.6-5.3-6.5-6-6.5c-1.3,0.3-2.4,1-3.2,2c-3.5,3.9,0.6,12.1,7.5,14.9
	C105.9,674.5,113.9,672,122.3,665z M385.9,550.3c-9.9,0-12.2-0.3-12.7-1.5c-0.9-2.5,0.2-2.8,7.9-2.6c7.7,0.2,15.5,1.8,16.4,3.2
	C397.8,549.9,392.6,550.3,385.9,550.3z M364.4,547.3c-0.9,0.8-1.5,0.8-1.5,0.2c0-1.2,1.9-2.6,2.6-1.9
	C365.7,545.8,365.3,546.5,364.4,547.3z M165.7,546.3c-4.5,0.5-8.9,0.9-9.8,0.9c-9-0.8-17-2.2-22.2-4c-19.4-6.5-48.8-26.3-57.7-38.9
	C68.1,493.1,53.4,461,47,441c-6.7-21-10-67.2-7.1-99.1c0.9-10.4,0.3-12.6-2.5-9.5c-1.4,1.5-2,4.4-2.6,11.3c-1,13.2-3,27.1-3.9,28.1
	c-2.5,2.6-2.5-25.6,0-41.6c1.2-7.8,2.3-9.6,3.3-5.8c1.3,4.9,3.8,1.9,10.4-12c3.6-7.7,6.7-13.9,6.9-13.8c-0.4,2.5-0.9,5-1.6,7.5
	c-4.3,16.8-7.5,52.7-6.7,74.8c1.2,31.6,13,75.9,26.4,99.2c18.5,31.9,42.3,52.7,67.9,59.2c5.6,1.4,25.7,4,30.9,4
	c2.7,0,6.6-1.3,11.5-3.7c4.1-2.1,7.9-4,8.4-4.2s-0.1,1-1.3,2.7C184.3,542,176.8,544.9,165.7,546.3L165.7,546.3z M282,539.7
	c-6.3,4-6.7,3.1-1.3-3.1c7.5-8.7,13-17.9,15.4-25.6c1.8-6,2-8.6,1.5-19.4c-0.4-11.1-0.3-12.2,1.1-11.1c3.2,2.7,5.2,9.1,5.2,16.8
	C303.9,514.9,295.5,531.2,282,539.7L282,539.7z M76.4,535.7c2.6,2,1.5,1.9-9.5-0.5c-7.1-1.3-14.3-2.2-21.5-2.7l-13-0.7l5.3-1.9
	c8.1-2.8,23.8-2,31.2,1.5C71.5,532.6,74,534,76.4,535.7L76.4,535.7z M353,521.2c-0.3-0.1-3.2-0.5-6.5-1s-6.4-1.3-6.8-1.7
	c-1-1,12.5-7.3,16.2-7.5c2.1-0.2,2.6,0.4,2.8,2.9c0.2,2.5-0.3,3.7-2.4,5.3C355.3,520,354.2,520.7,353,521.2z M12.7,470.4
	c-0.3,5.6-2.8,6.4-2.8,1c0-2.7,0.4-4.1,1.6-4.6C12.7,466.3,13,467,12.7,470.4L12.7,470.4z M82.1,233c-3.1,4.3-7.6,11.3-10,15.5
	c-5.7,9.7-4.4,5.4,2.3-8c8.5-17,16.2-27.6,28.6-39.4c13.3-12.6,22.7-20,33.4-26.1c7.8-4.4,23.3-10.9,24.1-10.2
	c0.8,0.7-16.6,11.6-18.5,11.6c-1.1,0-5.5,2.7-9.8,5.9C114.2,196,93.3,217,82.1,233L82.1,233z M231.2,208.5c-5.5-3.3-5.8-5.2-1.3-9.7
	c3.6-3.7,3.8-4.3,3.3-8.4c-0.4-4.1-1.4-8.2-2.8-12.1c-0.4-1.1-0.3-1.8,0.4-1.8c1.7,0,3.9,5.2,4.7,10.8c0.2,2.4,0.8,4.7,1.9,6.9
	c1.1,1.5,1.6,1.5,3,0.3s1.6-2.4,1.1-6.9c-0.9-7.5-3.3-12.5-9.9-20.1c-3-3.6-5.4-6.7-5.2-6.9c0.9-0.8,12.4,7.2,16.6,11.6
	c6.8,7,8.3,10.5,8.4,18.8c0,8.5-2.2,13-8.1,16.1C237.3,210.4,234.7,210.6,231.2,208.5z"/>
<path class="st0" d="M141.7,583.8c-1.3-1-2.8-1.7-4.4-2c-2.9-0.6-2.8-0.5,1,1.9C142.3,586.3,144.3,586.4,141.7,583.8z"/>
<path class="st1" d="M151.2,524.6c4.1-2.9,8.7-9.7,8.7-13.1c0-2.7-5.9-8.9-9.4-9.8c-4.3-1.1-5.1,0.6-2.6,6.4s1.7,8.3-3,10.7
	s-11,1.9-16.1-1.3c-12.8-8.2-16.1-19.7-10.4-36.8c3.2-9.7,6.5-15.4,12.3-21.6c5.1-5.4,5.2-8.4,0.4-4.3c-4.8,4.1-12,14.6-15.5,22.8
	c-2.7,6.2-3.1,8.4-3.1,15.7c0,6.5,0.6,9.6,2.2,13.3c2.8,6.3,11.3,14.6,18.2,18C140.3,528.1,146.1,528.2,151.2,524.6z"/>
<path class="st2" d="M355.5,498.2c1-0.2,1.9-0.5,2.8-0.9c1.9-0.7,3.7-3.2,6.7-9.5c5.8-12.1,6-17,1.3-27.8l-1.6-3.9l4.3,0.7
	c2.4,0.4,4.7,0.8,5.1,0.9c1.5,0.2,10.8-23.6,11.4-29.1c0.7-6.6-1.7-13.4-5.7-16.3l-2.8-2l-10.8,3.5c-6,1.9-11,3.3-11.1,3.1
	c-0.8-0.8,1.1-3.6,2.7-4.1c3.2-1,7-4.6,7-6.6c0-5.5-14.1-24.9-18.1-24.9c-1,0-1.9,0.3-1.9,0.8c-0.5,1.2-1.1,2.2-1.9,3.2
	c-1.6,2-3.1,2.5-9.1,3.1c-4.8,0.4-8,1.3-9.8,2.6c-2.5,1.9-2.7,2.6-2.6,8.4c0.2,4.7,1.1,9.3,2.6,13.7c1.3,3.9,2.2,7.2,1.8,7.2
	c-1.5-0.7-2.8-1.6-4.1-2.6c-2.7-2-5.6-3.7-8.6-5.1c-6.5-3-8.5-2.2-10.8,4.4c-1.2,3.4-2.5,6.8-4.1,10.1c-1.3,2.9-2.4,5.5-2.4,5.7
	c0,0.7,9,5.1,13.3,6.4c5.5,1.8,4.7,3.7-1.9,4.5c-11.7,1.4-13.9,5.2-8.8,15.4c2,3.8,4.8,7.1,8.2,9.6c6.9,5.3,12.3,8.6,13.9,8.6
	c0.7,0,2.9-2.5,4.9-5.5s4-5.5,4.5-5.5s0.9,1.9,0.9,4.3c0,8,2,17.1,4.3,19.6c2.8,3,9.5,6.1,15.6,7.1
	C352.3,497.5,353.9,497.8,355.5,498.2z M342.3,471.1c-1.6,5.5-2.9,7.1-3.8,4.7c-0.3-0.8-1.3-1.2-2.1-0.9c-1.3,0.5-1.5-0.8-1.5-9
	c0-6.9-0.3-9.6-1.2-9.6c-0.7,0-3.4,2.1-6,4.7c-3.5,3.4-4.8,4.2-4.8,2.9c0-1.3-0.6-1.6-2-1.1c-1.4,0.5-2,0.2-2-0.9
	c0-1.1-1-1.6-3.2-1.6h-3.1l3.8-3.3c4.4-3.8,4.1-6-0.5-4.7c-2.9,0.8-4.2-0.2-2-1.5c0.6-0.3,1-1,1-1.7c0-1-0.9-1.8-1.9-1.8
	c-2.6,0-3.5-1.6-1.5-2.4c1.9-0.4,3.9-0.6,5.9-0.6c4.8,0,7.5-0.8,7.5-2.1c0-0.5-2.5-2.3-5.5-4c-5.1-2.8-5.4-3.3-3.8-4.4
	c1.7-1.3,1.6-1.5-1.1-4.4c-2.9-3.1-3-5.5-0.1-3.1c1.1,1,1.8,1.1,2.9,0.1s3.1-0.6,9.1,1.8c9.5,3.6,9.8,3.2,6.5-8.9
	c-1.1-3.9-1.9-7.9-2.4-12c-0.1-3.1,0.2-3.5,2.7-3.8c2.2-0.3,3,0.1,3.4,1.8c0.4,1.4,1.1,1.9,2.3,1.5c1.5-0.5,1.9,0.2,2.5,3.5
	c0.4,2.2,1.1,4.3,1.7,4.6c1.5,0.9,4.5-2.5,6.2-7.1l1.5-4v6.2c0,4.2-0.6,8.3-1.8,12.3c-3,9.6-1.1,11.3,7,6.2c2.4-1.5,5.1-3.2,5.7-3.6
	c0.6-0.4,0.2,0.9-0.9,2.9c-2.4,4-2.1,5.2,1,3.5c2.3-1.2,2.8-0.1,0.9,1.8c-0.8,0.8-0.8,1.5,0,2.5s0.9,1.6,0.1,2.4
	c-0.8,0.8-0.2,1.8,2,3.4c1.9,1.4,2.8,2.5,2,3c-0.8,0.5-0.8,1.2,0,2.7c1.9,3.6,1.3,4.2-4.3,4.2c-3,0-5.8,0.4-6.1,1
	c-0.3,0.6,0.4,2.8,1.6,5c2.1,3.8,2.2,4.1,0.5,5.3c-1.4,1-1.5,1.8-0.7,4c1.7,4.4-0.4,3.1-3.9-2.3c-3.7-5.8-5-5.8-2.7-0.2
	c2.3,5.6,0.8,6-3.5,1c-3.6-4.1-3.7-4.2-3.8-1.7C343.6,466,343.1,468.5,342.3,471.1L342.3,471.1z M376.9,437.9
	c-0.5,2.5-0.6,2.6-1.9,1.2c-1-1.2-1.1-3.2-0.6-7.2c0.8-7,2.2-7.9,2.7-1.6C377.2,432.8,377.1,435.3,376.9,437.9z"/>
<path class="st3" d="M346.8,449.3l2-4l-2.5-5c-2-4-3-5-5.1-5c-3,0-10,6.4-10.8,10c-0.7,3.3,0.1,4.3,4.9,6.3
	C342.2,454.3,344.6,453.9,346.8,449.3z"/>
<path class="st4" d="M233.1,479.9c7.1-1.6,12.7-5,23.1-14c9.2-7.9,14.1-16.3,19.3-32.8c2.5-7.9,6.4-19.7,8.8-26.5s4-12.3,3.5-12.3
	c-2.2,0-7.9,12.2-7.9,17c0,0.9-0.3,1.8-0.9,2.5c-1.8,1-4.1-3.9-4.1-8.7c0-3.9,0.6-5.4,3.2-8.4c2.5-2.6,5.4-4.8,8.5-6.6
	c5.7-3.2,6.5-4.3,3.3-5.3c-3.2-1-8.6,1.3-15.7,6.7c-2.1,1.7-4.3,3.3-6.7,4.6c-0.1-0.1-1.2-2-2.5-4c-5.4-9.1-17.4-15.7-30-16.5
	c-7-0.5-8.4-0.3-13.2,2c-8.3,3.9-15.7,11.7-19.8,20.8c-5.2,11.3-0.4,28.6,9.1,33.5c5.9,3,19.8-0.5,25.1-6.3
	c2.4-2.7,2.7-16.7,0.4-21.2c-1.5-3-1.5-3.1,0.9-3.7c3.4-0.9,11.3,1.3,15.1,4.2c4.5,3.4,6.8,7.7,9.8,18.4c3.5,12.5,3.1,17.3-2.3,28.4
	c-13.6,27.5-49.1,36.9-79.3,21c-16.4-8.6-40.7-32.8-48.4-48.2c-5.2-10.3-9.9-27.2-7.7-27.2c0.6,0,1.6,1.7,2.2,3.8
	c3.4,10.4,17.8,34.3,27.7,45.8c7,8.2,17,15.9,25.5,19.9c9.9,4.5,27.9,9.6,34.9,9.7c7.4,0.1,15.8-2.7,16.9-5.7
	c0.5-1.2,2.5-3.2,4.4-4.5c1.3-0.7,2.5-1.5,3.6-2.5c0-0.2-2.5,0.5-5.5,1.6c-10.9,3.8-11.3,2-1.1-5.5c8-5.9,12.8-11.7,14.5-18.1
	c1.7-6.4,1.2-7.5-1-1.9c-3.8,9.9-13.4,17.9-27.5,23c-3.4,1.3-7,2.1-10.7,2.4c-18.3,0-50.2-19.6-62-38.1c-3.8-6-7-12.9-5.9-12.9
	c0.4,0,2.7,2.8,5.2,6.1c12.2,16.5,31.8,29.8,48.4,33c8.8,1.6,21.6,1,26.6-1.2c5-2.2,12.4-8.9,14.6-13.1c2-3.8,1.8-3.9-2.1-2.2
	c-4.3,1.8-9.3,1.7-17-0.1c-7-1.7-12.8-0.6-14.5,2.5c-3,5.6-25.9-0.9-36.5-10.2c-4-3.5-12.5-15-12.5-16.8c0-0.4,3.2-1.2,7.1-1.9
	c9.9-1.6,12.2-3,14.9-9.3c2.6-6,3.8-12.8,2.2-12.8c-1.8,0.5-3.6,1.2-5.3,2c-16.7,7.5-35.2-7.6-40.3-33.1c-2.8-13.6-3.9-31-2.7-41.7
	c1.8-16.3,4.1-26.9,6.7-30.5c2-2.9,3.7-6,5.2-9.2c6.4-13.3,21.8-30.3,39.4-43.6c6.5-4.9,12.3-8.9,12.8-8.9c1.4,0,1.2-2.7-0.2-3.6
	c-0.7-0.5-2.4,0.7-4.3,2.9c-2.1,2.4-4.1,3.7-5.7,3.7c-6.5,0-31.2,20.7-42.2,35.5c-12.3,16.3-18.6,30.3-23.8,53
	c-2.7,11.6-3.1,15.5-3.7,36c-0.6,21.2-0.5,23.4,1.2,28c1,2.8,3.4,10.6,5.3,17.5c4.7,16.8,7.5,24.5,13.5,36.1
	c6.4,12.5,9.9,17.2,14.9,20.4c3.9,2.8,7.7,5.8,11.2,9.1c10.5,9.6,23.2,15.6,40.8,19C207.7,482.4,223.7,482,233.1,479.9z
	 M227.8,428.8c-4.5,1.8-4,1.8-9.8,0c-7.6-2.4-11.8-7.5-14.1-17.1c-1.4-6.3-0.7-10.3,2.7-14.3s4.3-3.8,2.7,0.8
	c-3.1,8.6-0.4,16.6,7.1,21.2c6,3.7,15.5,1.4,15.5-3.8c0-3,2.4-2.4,2.8,0.8c0.2,1.2-0.4,4.2-1.3,6.5
	C232.1,426.4,231,427.5,227.8,428.8L227.8,428.8z M167.3,401c-9.8,4-20.2-0.4-27.6-11.9c-5.7-8.7-4.9-10.1,1.9-3.3
	c7.8,8.1,14.3,11,22.8,10.3c5.8-0.4,6.4-0.3,6.4,1.5C170.9,398.8,169.7,400,167.3,401L167.3,401z"/>
<path class="st1" d="M100.5,459.9c2.5-2.2,2.8-3.1,2.8-8.4c0-7.2-1.4-9.2-6.5-9.2c-3.9,0-6.2,1.8-7.5,5.8c-0.6,2-1.2,2.3-5.3,2
	c-4.6-0.3-4.8-0.4-7.4-5.6c-3.4-7-4.4-14.9-3-22.6c2.3-12,9.7-22.4,23.7-33.1c8.2-6.3,9.7-9,1.6-3.1c-8.7,6.4-20.7,20-24.6,27.9
	c-9.7,19.8-5.7,38.4,10,46.5C90.1,463.1,97,463,100.5,459.9z"/>
<path class="st2" d="M244.5,461.3c4,0,12.5-17.2,12.3-24.8l-0.1-3.7l-0.8,4.1c-1.3,6.3-6.8,18.5-9.7,21.7
	C244.7,460.1,244,461.3,244.5,461.3z"/>
<path class="st2" d="M256.6,429.2c0.7-2.9-2.6-12.8-5.3-15.5c-3.3-3.2-4.4-2.1-1.6,1.5c3.1,3.7,6.1,10.2,6.3,13.2
	C256.1,430.1,256.3,430.3,256.6,429.2z"/>
<path class="st5" d="M200.9,376.4c4.9,0,13-4,18.3-9.1c9.5-9.2,8.6-21.8-2-28.8c-7.8-5.2-14.9-3.6-18.9,4.1
	c-1.8,3.4-1.3,5.8,1.2,5.8c2.3,0,5.4,2.9,5.4,5.1c0,3.3,1.9,3,2.2-0.3c0.2-2.3,0.9-3.4,2.2-3.6c1.7-0.4,1.8,0.1,1.4,4
	c-0.6,5.2-2.7,10-4.7,10.6c-1.1,0.4-1.2-0.3-0.7-3.2l0.7-3.6l-2.5,2.5c-2.9,2.8-3.5,2.9-10.8,1.4c-6.2-1.3-15.7-5.9-21.1-10.1
	c-4.2-3.3-9.8-14.1-11.6-22.3c-2.2-10.6-2.4-14.2-0.6-19.7c2.8-8.3,8.2-18.4,11.1-20.7c4-3.1,10.7-2.8,18,0.9c4.3,2.1,6,2.6,6.6,1.7
	c1.3-2,0.9-4-1.4-8.7c-3-5.9-7.6-8.5-15-8.5c-3.2,0-5.8-0.3-5.8-0.7c0-0.4,3.7-4.4,8.3-9c5.3-5.6,11.4-10.2,18.2-13.8
	c8.4-4.6,9.6-5.5,7.3-5.8c-4-0.5-16.4,5.8-23.9,12c-14.1,11.8-24.5,30.5-28.4,50.9c-1.9,10.1-1.9,16.4,0,25.3
	c2,9.4,6.4,16.5,16.3,26.4c6.8,6.6,10.1,9.1,17.5,12.7C193.8,374.5,198.8,376.4,200.9,376.4z"/>
<path class="st1" d="M80.3,364.3c3.4-3,4.5-6.8,2.7-9.5c-3-4.6-11.3-3.5-13.1,1.7c-1,2.9-1.1,3-4,1.5c-1.7-1-3.3-2.3-4.5-3.8
	c-2.2-3.1-2-13.7,0.3-22.3c1.1-3.8,1.8-7.1,1.6-7.3c-0.8-0.9-4.5,5.4-4.5,7.8c-0.1,2.1-0.7,4.1-1.6,6c-1.3,2.5-1.5,4.7-1,9.8
	c0.9,8.9,4.1,14,11.1,17.6C72.2,368.3,76.3,367.8,80.3,364.3z"/>
<path class="st1" d="M73.7,316c5.6-2.4,11.3-4.4,17.2-6c14.9-4.4,18-5.5,18-6.8c0-0.9-8-0.4-18.5,1.3c-10,1.7-19.8,7-22.6,12.2
	C66.5,319.1,68,318.9,73.7,316z"/>
<path class="st1" d="M85.6,278.4c4.7,0,6.3-1.4,6.3-5.5c0-4.4-2.6-7.5-6.1-7.5s-3.5-0.2-0.7-6.3c1.8-3.7,3.3-5.2,6.7-6.9
	c6.2-3,17.3-3.5,31.7-1.3c6.3,0.9,11.7,1.5,12,1.2c1.1-1.1-22.7-5.9-31.7-6.4c-8.7-0.5-10.2-0.3-14.4,1.7
	c-6.9,3.3-10.8,9.9-12.9,21.8c-0.5,2.8-0.1,3.9,2.3,6.3C80.4,277.4,83,278.5,85.6,278.4z"/>
<path class="st3" d="M56.8,230.5h3.1c4.6,0,8.2-2.3,14-9c5.3-6.1,5.5-7.1,1-4.5c-1,0.6-2.1,1.1-3.2,1.5c-1.4,0-0.8-7.5,0.8-9.8
	c1.9-2.7,1.1-2.8-2.3-0.2s-4,2.5-3.5-0.5c0.5-3,0.2-3.1-4-0.5c-1.5,1-3.3,1.7-5.1,2c-1.6,0.2-3.2,0.7-4.7,1.5
	c-3.5,1.8-4.9,0.4-2.6-2.8c0.9-1.2,2.4-3.3,3.3-4.6c1.7-2.4,1.7-2.4-0.4-1.3c-4.7,2.5-5.6,0.8-2.2-3.9c1.2-1.7,1.5-2.9,0.8-2.7
	c-0.7,0.2-1.9-1.1-2.8-2.7s-1.8-3.1-1.9-3.4s-0.8,0.1-1.4,0.7c-1.9,1.9-2.8,1.4-2.8-1.3c0-1.4-0.3-2.5-0.6-2.5
	c-1.9,0-13,3.3-13.9,4.1c-1.1,1,6.8,9.6,9.8,10.5c1.6,0.5,1.3,1.2-2.7,4.9c-3.5,3.4-4.9,5.8-6.5,11c-2.5,8.1-2.6,10.4-0.4,11.2
	c2.8,1.1,15.5-1.6,22.2-4.7c2.2-1.1,4.5-2.1,6.8-3c0.3,0,0.3,2.3-0.1,5L56.8,230.5z"/>
<path class="st1" d="M127.3,217.3c0.7-1.2,0.7-3.6,0-8c-1.1-6.1-1-6.3,1.6-8.9c5.4-5.5,21.8-8.3,31.5-5.4c9.1,2.6,12.8,4.9,21.2,13
	c4.3,4.1,8.3,7.3,8.8,7.1c1.6-0.5-11.9-13-19.5-18.1c-9.3-6.2-16.9-8.8-24.1-8.3c-9.6,0.7-24.7,9.7-27.5,16.4
	c-1.5,3.5-1.9,12.6-0.7,13.8C119.9,220.2,126.2,219,127.3,217.3z"/>
<path class="st4" d="M81.6,184c5.6-1.7,10.3-4.9,10.3-7.1c0-1.9-4.5-6.1-8.8-8.3l-3.4-1.7l6-3.2c5.8-3.1,9.8-7,15.5-15
	c3.1-3.8,6.4-7.4,9.8-10.8c5.6-5.5,6.8-6.3,6-4.1c-1.7,4.5-1.4,4.4,4.4-1.3l5.6-5.5l-1.7,4c-3.8,9-8.6,17.6-14.3,25.5
	c-6.4,8.3-7.5,10-6.7,10c1,0,19.5-23.8,24.4-31.3c2.6-4,5-8.2,7.1-12.5c2.7-5.8,4.1-6.6,4.1-2.4c0,3.2-3.7,11.4-7.8,17.5
	c-3.3,4.7-5.5,8.7-4.9,8.7c0.3,0,3.9-4.5,8.2-10s7.9-10,8-10s-1.3,4.1-3.2,9.1c-1.9,5-3.2,9.3-3,9.5c0.2,0.2,2.2-2.1,4.3-5.3
	s4.8-5.9,5.8-6.1c1.9-0.4,1.9-0.5,0,6.7c-0.6,2.2-0.5,2.2,1.5,1.1c3.3-1.7,3.5-0.7,1.2,4.5c-0.8,1.7-1.5,3.4-2.1,5.2
	c0,1.1,14.8-10,16.7-12.5c3.3-4.7,5.8-10,7.4-15.5c1.8-7.3,1.4-7.6-7.8-6.2c-4.3,0.7-7.9,1.2-8,1.1c1.3-3.3,2.9-6.6,4.6-9.7
	c6.2-12.5,7.7-19.4,5.8-27.3c-2.1-9.2-3.5-9.4-11-1.5c-4.4,4.5-9,8.8-13.9,12.8l-7.7,6.1l-1.5-2.2c-2.3-3.3-2-7,1.4-15.1
	c4.4-10.9,5.4-15.8,4.7-25.5c-0.7-10.9-2.4-16.2-9.3-28.2c-7.5-13.2-13-20-19.2-23.3C89.2-7.1,59.8,5.9,68.4,22.6
	c2.7,5.2,8.8,6.7,12.5,3c2.2-2.2,2.7-8.9,1.1-13.3c-0.8-2.1-0.6-2.6,1.5-3.6C87,7.2,96.5,7.3,99.7,9c8.6,4.4,18.4,20.7,21.7,36
	c2.4,11,1.6,19.3-3.3,34.6C102.7,127,96.2,138.6,78,150.3c-14.2,9.2-24.8,10.5-31.8,4c-3.2-2.9-2.9-3.6,1.8-4.8
	c5.4-1.5,8.3-4.7,9.8-11.3c1.9-7.8,1.6-8.6-6.4-12.9c-8-4.3-11-4.6-16.4-1.8c-8.6,4.3-12.6,12.8-11.9,25.2
	C24,165.8,35.3,179,53.6,184C60.3,185.8,75.3,185.8,81.6,184z"/>
</svg>
