<svg id="Layer_1" data-name="Layer 1" xmlns="http://www.w3.org/2000/svg" viewBox="0 0 487.3 673.4"><defs><style>.cls-1{fill:#890e52;}.cls-2{fill:#ff0;}.cls-3{fill:orange;}.cls-4{fill:#e24420;}.cls-5{fill:#f48b22;}.cls-6{fill:#c41010;}</style></defs><title>philigryLR</title><path class="cls-1" d="M387.4,672.51c6.9-2.8,11-11,7.5-14.9a5.75,5.75,0,0,0-3.2-2c-.7,0-3.4,2.9-6,6.5s-5.1,6.5-5.7,6.5c-2.4,0-7.8-4.9-10.8-9.9a45.47,45.47,0,0,0-4.9-6.8c-1.4-1.3-1.4-2.5.3-13.6a150.26,150.26,0,0,1,3.4-17.2c4.5-13.8,15.5-28.4,27.6-36.7,12.9-8.7,29.3-13.2,40.8-11,11.9,2.2,18.2,6.9,22.6,17,2.7,5.9,4,6.5,5.5,2.5,1.7-4.5.6-12.9-2.1-15.8l-2.3-2.5h9.4c11.2,0,16.2-1.8,16.7-6.2.5-4.1-8.5-15.1-13.5-16.6a16.38,16.38,0,0,1-6.6-4l-2.8-2.9,4.7-1.8c5-1.9,11.4-6.9,11.4-9,0-2.4-12.9-6.1-27.8-8.1-2.8-.3-5.2-1-5.2-1.3,0-1.4,6.6-7.4,12.1-11.1,14-9.6,25.9-28.7,25.9-41.8,0-3.7-1-7-4.4-13.8-5-10.2-7.7-13.4-11.1-13.4-1.4,0-2.5.1-2.5.3s1.1,2.4,2.5,5.1c4.8,9.4,2.9,23.8-4.8,37.4-3.9,7.1-14.3,18.1-22.2,23.7-5.8,4.2-22.4,13-23,12.3-.2-.2,2.7-5.1,6.4-10.8,8.7-13.3,13.7-22.8,18.9-36,7.7-19.4,9.7-29.1,15.7-76.4,4.9-39.2,4.7-58.9-.7-73.5a55,55,0,0,1-2.5-8.9c-.5-3.3-.4-3.3,1.7-2.2,1.2.7,5.8,1.4,10.1,1.7l7.9.6.1-2.9a22.85,22.85,0,0,0,0-3.7c-.1-.5,2.1-3.3,4.8-6.3,7-7.6,7.8-13.7,2.8-19.1-2.5-2.8-3.7-2.9-7.1-.2-3.1,2.5-3.3,4.5-.5,7.5l2.1,2.2-2.1,2.1c-2.6,2.6-7.9,2.8-12.7.5-6-2.8-10.8-9.7-22.5-32.1-14-26.6-17.2-31.8-26.3-41.3-7.3-7.7-13.1-15-10.6-13.5,3.6,2.2-5.6-7.9-14.7-16.1-26-23.4-47.4-36.1-72-42.5-11.4-2.9-12.4-3-28.3-2.6-13.6.3-17.7.8-23.5,2.7-13.6,4.4-23.3,10.3-33.6,20.5-10.8,10.8-15.6,23.1-14.6,38,.6,10.5,3,16.3,11.4,28.2,14.7,20.9,18.7,29.6,18.6,40.1,0,3.9.1,7.2.4,7.2a25.72,25.72,0,0,0,3.3-1.5c4.2-2.2,6.2-9.1,5.4-18.3-.7-7-.6-7.2,1.6-7.2a31.45,31.45,0,0,1,7.6,1.7c6.9,2.1,8.8.9,7.9-5.1-1.3-9-1.6-9.6-3.8-9.6-3.8,0-5,1.4-4.2,4.9s0,3.8-3.3,1.5c-1.2-.8-2.6-1.2-3.2-.9s-2.7-.3-4.9-1.5c-5.1-2.5-7.1-2.5-7.8,0-.9,3.2-2.4,2-8.1-6.4-5.3-8-6.7-11.2-3.3-8.2,5,4.6,24,7.8,33,5.6a27.7,27.7,0,0,0,17.6-14.4c2.2-4.4,2.6-6.8,2.6-12.9,0-10.2-2.1-15.1-8-18.8-4.4-2.8-10.1-3.9-10.1-1.9,0,.6.9,1,2,1,4.5,0,8.9,13.9,6.9,21.5-1.6,5.7-10.5,14.5-14.7,14.5-4.4,0-4.7-1.5-1-4.1,7.6-5.2,8.8-6.9,8.8-12.5,0-3.9-.9-7.1-3.5-12.5-1.9-4.1-3.5-8.2-3.5-9.3,0-4.9,2.7-10.4,7.5-15.2,6.7-6.7,11.8-8.5,26.5-9.1,19.1-.8,35.2,4.1,54.3,16.7,23.1,15.2,41,36.4,55.6,65.6,7.1,14.3,10.6,24.2,16.5,47.5,8,31.8,11.3,58.7,10.3,83.9s-3.3,35.5-14.3,67.5c-11.4,32.9-15.3,39.5-34.4,58.5-15,15-28.1,23.3-42.8,27.1-16.7,4.2-32.6.8-41.5-9-3.4-3.8-3.7-4.6-3.7-10.4,0-5.1.6-7.6,3.5-13.6,1.9-4,3.5-7.9,3.5-8.6,0-3.4-14.2-2.5-21.9,1.5-8,4-14.1,13.1-14.1,21,0,4.9,2.9,12.6,7.1,18.5l4.1,5.8-2.5,2.4-2.4,2.4-1.8-4.8c-3-8.3-6.7-14.3-9.9-16.3-1.7-1-6.3-2.5-10.1-3.4A84.39,84.39,0,0,1,246,518c-1.8-.7-1.9-.3-1.3,8.7a58.84,58.84,0,0,0,6.6,24.7c1.2,2.3,1.8,4.2,1.4,4.2-2-.1-15.3-4-20-5.8-19.9-8-32.6-21.7-36.8-39.4-1.8-7.7-1.9-21.6-.3-27.2,1.6-5.4,8.9-12.6,15-15,5.9-2.2,6.1-3.6.7-3.6-5.1,0-12.9,4.1-21.9,11.3-11.6,9.4-14.5,16-15.6,34.7-.5,7.7-.2,12.2.9,17,.9,3.6,1.4,6.6,1.2,6.8s-2.2-2-4.6-4.9c-5.4-6.3-15.4-14.4-20.5-16.5a51.69,51.69,0,0,0-10.4-2.5,47.74,47.74,0,0,1-11.2-3.1c-2.7-1.2-5.1-1.8-5.5-1.5-1.2,1.3-.3,8.4,1.6,12.8a64.83,64.83,0,0,0,6.5,10.7c5.6,7.6,5.8,8.6,1.1,7.8-6.5-1.3-6.5,1.5,0,6.6,2.7,2.1,4.3,2.3,17.5,2.8,14.1.5,14.7.6,22,4.1,4.1,2,9.2,5.3,11.2,7.3,4,3.9,5,6.3,2,5.1-6.3-2.5-16.6-5.5-17.5-5.2-.6.2,1.4,1.7,4.4,3.4a38.9,38.9,0,0,1,6.9,4.7c1.2,1.6,1.1,1.7-1.6,1-1.6-.4-8.5-2.7-15.4-5.1a230.28,230.28,0,0,0-23-6.9c-14.3-3.4-14.2-3.3-13.5-5.1,1.7-4.6-11.6-9.6-25.5-9.5a423.21,423.21,0,0,0-44,3.2c-17.8,2.6-29.9,8.8-42.6,21.4C3.4,575.41,0,582.11,0,592.11c0,5.7.5,8,2.8,12.5,6,12,14.7,17.3,24.1,14.9,11.6-3.1,17.9-16.7,11-23.9-2.3-2.4-3.8-2.9-9.7-3.5l-7-.7.7-5.7a55.07,55.07,0,0,1,1.7-9.1c2.7-8.8,11.7-17.3,23.9-22.9,7-3.2,16.6-5.4,17.5-4,.3.5-.4,3-1.5,5.5a46.39,46.39,0,0,0-2.1,5c0,.2,1.8.4,4,.4h4v7.3c0,4.5.5,8,1.3,9.1,1.3,1.8,1.5,1.8,4.7.1,1.9-1,5.9-3.5,9.1-5.6,7.3-5,16.1-8.3,27.8-10.3,19.9-3.4,31.9-1.4,47.9,8,4.2,2.5,4.3,2.7,2.8,4.7-2.8,3.9-7.4,12.1-8.1,14.5-1,3.5,1.1,2.8,10.3-3.5,8.1-5.6,8.7-5.8,14.6-5.7,4.8,0,7.6.8,12.8,3.3,3.7,1.8,7.4,4.1,8.4,5.2,1.7,1.9,1.5,1.9-8,1.9-7.7,0-10.5.4-13.6,2-6.6,3.4-12.4,12.8-10.1,16.7.9,1.6,1,1.6,1.1-.5,0-1.9,1.4-3,7.7-5.9,10.2-4.7,17.5-5.4,27.1-2.4,3.9,1.2,7.3,2.5,7.6,2.9s-5.7.7-13.2.7c-13,0-14,.1-18.9,2.7-7.6,4.1-10.8,8.9-8.4,12.7.7,1.1,2.4.5,8.6-3.2a70.27,70.27,0,0,1,15.8-6.7c7.7-2.1,9.6-2.2,29.2-1.6,11.5.3,27.1.9,34.5,1.2a105.62,105.62,0,0,0,23.9-1c12.5-2,24.4-4.6,23.8-5.3-.3-.2-5,.2-10.5,1.1-11.4,1.8-40.2,2.1-47.2.5-7.6-1.7-20.2-8.2-23.8-12.3-1.7-2-3.2-4.1-3.2-4.6s3.3.7,7.4,2.6c6.6,3,21.6,7.4,25.5,7.4,2.6,0,.4-1-5.4-2.5-15.4-4.1-33.1-14.3-44.5-25.9-6.9-7.1-7.2-8-1.2-4.3,8,5.1,29.2,15.8,38.8,19.6,10.5,4.1,16.8,5.5,29.4,6.6,14.7,1.3,49.1-4.7,62.8-11,4.5-2.1,8.1-4,7.8-4.2s-3.2.3-6.7,1.2c-17.8,4.6-37.9,5.9-47.5,3a52.74,52.74,0,0,1-11.3-5.5c-8.7-5.6-20.1-16.9-20.1-19.9,0-2,.8-1.5,7.1,4,9.6,8.7,9.8,8.8,18.2,10.9,7.7,1.9,20.6,3.7,19.7,2.7-.3-.3-3.8-1.3-7.7-2.1a70.15,70.15,0,0,1-11.8-3.5c-4.4-1.9-11.9-7.1-11.2-7.7.1-.2,3.2.6,6.7,1.7,13.5,4.2,20.2,5.2,34.5,5.1,20.3,0,35-3.6,57-13.7,18.3-8.3,29-17.3,39.5-33,6.6-9.9,7.5-10.9,6.6-7-1.4,5.6-12,19.9-23.5,31.5-6.3,6.3-11.5,11.8-11.5,12.2a4.92,4.92,0,0,1-1,1.5c-.5.5-.6.3-.2-.4s.5-1.3.3-1.3c-.5,0-22,13-22.7,13.8-.5.5,2,.1,8-1.3l2.5-.6-2.5,1.8c-3.6,2.5-10,9.2-10,10.4,0,.6,1.3.1,2.9-1a14.15,14.15,0,0,1,3.5-2.1c.8,0,21.1-20.3,21.1-21.2a3.05,3.05,0,0,1,.9-1.5c.5-.5.6-.3.2.5-1.1,1.9.2,1.5,3.7-1.2,4.7-3.5,16.5-9.2,22.8-10.9a71.47,71.47,0,0,1,27.2-1.8c9.5,1.1,19.7,4.9,19.7,7.4,0,1.2-1.1,1.1-5.8-.6-8.5-2.9-25-2.9-35.7.2-22.2,6.2-35.2,17.4-46.4,39.8A154.4,154.4,0,0,0,358,623.11c-2.2,10.1-2.4,10.8-3.5,8.2-3.6-9-3.3-20.4.9-32.1,3-8.2,2-10.5-1.4-3.1a63.53,63.53,0,0,0-2.7,43.4c1.1,3.5,1.7,6.9,1.4,7.7a1.58,1.58,0,0,0,1,2l.07,0a2.63,2.63,0,0,1,1.6,2.3c0,2.7,5.3,10.4,9.6,13.9C373.4,672.41,381.4,674.91,387.4,672.51ZM89.8,549.71c.9-1.4,8.7-3,16.4-3.2s8.8.1,7.9,2.6c-.5,1.2-2.8,1.5-12.7,1.5C94.7,550.61,89.5,550.21,89.8,549.71Zm32-3.8c.7-.7,2.6.7,2.6,1.9,0,.6-.6.6-1.5-.2s-1.3-1.5-1.1-1.7Zm199.8.7c-11.1-1.4-18.6-4.3-21.3-8.2-1.2-1.7-1.8-2.9-1.3-2.7s4.3,2.1,8.4,4.2c4.9,2.4,8.8,3.7,11.5,3.7,5.2,0,25.3-2.6,30.9-4,25.6-6.5,49.4-27.3,67.9-59.2,13.4-23.4,25.2-67.7,26.4-99.3.8-22.1-2.4-58-6.7-74.8a58.17,58.17,0,0,1-1.6-7.5c.2-.1,3.3,6.1,6.9,13.8,6.6,13.9,9.1,16.9,10.4,12,1-3.8,2.1-2,3.3,5.8,2.5,16,2.5,44.2,0,41.6-.9-1-2.9-14.9-3.9-28.1-.6-6.9-1.2-9.8-2.6-11.3-2.8-3.1-3.4-.9-2.5,9.5,2.9,32-.4,78.2-7.1,99.2-6.4,20-21.1,52.1-29,63.3-8.9,12.6-38.3,32.4-57.7,38.9-5.2,1.8-13.2,3.2-22.2,4-.9,0-5.3-.4-9.8-.9ZM205.3,540c-13.5-8.5-21.9-24.8-21.9-42.4,0-7.7,2-14.1,5.2-16.8,1.4-1.1,1.5,0,1.1,11.1-.5,10.8-.3,13.4,1.5,19.4,2.4,7.7,7.9,16.9,15.4,25.6,5.36,6.2,5,7.1-1.3,3.1Zm205.6-4a56.82,56.82,0,0,1,7.5-4.3c7.4-3.5,23.1-4.3,31.2-1.5l5.3,1.9-13,.7a194.28,194.28,0,0,0-21.5,2.7c-11,2.4-12.1,2.5-9.5.5ZM131,519.51c-2.1-1.6-2.6-2.8-2.4-5.3s.7-3.1,2.8-2.9c3.7.2,17.2,6.5,16.2,7.5-.4.4-3.5,1.2-6.8,1.7s-6.2.9-6.5,1A12.24,12.24,0,0,1,131,519.51ZM474.6,470.78c-.3-3.4,0-4.1,1.2-3.6s1.6,1.9,1.6,4.6C477.4,477.21,475,476.31,474.6,470.78Zm-69.4-237.7c-11.2-15.9-32.1-36.9-50.1-50.6-4.3-3.2-8.7-5.9-9.8-5.9-1.9,0-19.3-11-18.5-11.7s16.3,5.8,24.1,10.2c10.7,6.1,20.1,13.5,33.4,26.1,12.4,11.8,20.1,22.4,28.6,39.4,6.7,13.4,8,17.7,2.3,8-2.4-4.17-6.9-11.17-10-15.47ZM244,207.21c-5.9-3.1-8.1-7.6-8.1-16.1.1-8.3,1.6-11.8,8.4-18.8,4.2-4.4,15.7-12.4,16.6-11.6.2.2-2.2,3.3-5.2,6.9-6.6,7.6-9,12.6-9.9,20.1-.5,4.5-.3,5.7,1.1,6.9s1.9,1.2,3-.3a18.89,18.89,0,0,0,1.9-6.9c.8-5.6,3-10.8,4.7-10.8.7,0,.8.7.4,1.8a47.94,47.94,0,0,0-2.8,12.1c-.5,4.1-.3,4.7,3.3,8.4,4.5,4.5,4.2,6.4-1.3,9.7C252.6,210.78,250,210.51,244,207.21Z" transform="translate(0 0)"/><path class="cls-1" d="M348.9,584c3.8-2.4,3.9-2.5,1-1.9a10.56,10.56,0,0,0-4.4,2C342.9,586.71,344.9,586.61,348.9,584Z" transform="translate(0 0)"/><path class="cls-2" d="M354.4,524.91c6.9-3.4,15.4-11.7,18.2-18,1.6-3.7,2.2-6.8,2.2-13.3,0-7.3-.4-9.5-3.1-15.7-3.5-8.2-10.7-18.7-15.5-22.8s-4.7-1.1.4,4.3c5.8,6.2,9.1,11.9,12.3,21.6,5.7,17.1,2.4,28.6-10.4,36.8-5.1,3.2-11.4,3.7-16.1,1.3s-5.5-4.9-3-10.7,1.7-7.5-2.6-6.4c-3.5.9-9.4,7.1-9.4,9.8,0,3.4,4.6,10.2,8.7,13.1C341.2,528.51,347,528.41,354.4,524.91Z" transform="translate(0 0)"/><path class="cls-3" d="M136.5,497.61c6.1-1,12.8-4.1,15.6-7.1,2.3-2.5,4.3-11.6,4.3-19.6,0-2.4.4-4.3.9-4.3s2.5,2.5,4.5,5.5,4.2,5.5,4.9,5.5c1.6,0,7-3.3,13.9-8.6a28.21,28.21,0,0,0,8.2-9.6c5.1-10.2,2.9-14-8.8-15.4-6.6-.8-7.4-2.7-1.9-4.5,4.3-1.3,13.3-5.7,13.3-6.4,0-.2-1.1-2.8-2.4-5.7a99.28,99.28,0,0,1-4.1-10.1c-2.3-6.6-4.3-7.4-10.8-4.4a56,56,0,0,0-8.6,5.1,21.68,21.68,0,0,1-4.1,2.6c-.4,0,.5-3.3,1.8-7.2a51.63,51.63,0,0,0,2.6-13.7c.1-5.8-.1-6.5-2.6-8.4-1.8-1.3-5-2.2-9.8-2.6-6-.6-7.5-1.1-9.1-3.1a12.31,12.31,0,0,1-1.9-3.2c0-.5-.9-.8-1.9-.8-4,0-18.1,19.4-18.1,24.9,0,2,3.8,5.6,7,6.6,1.6.5,3.5,3.3,2.7,4.1-.1.2-5.1-1.2-11.1-3.1l-10.8-3.5-2.8,2c-4,2.9-6.4,9.7-5.7,16.3.6,5.5,9.9,29.3,11.4,29.1.4-.1,2.7-.5,5.1-.9l4.3-.7-1.6,3.9c-4.7,10.8-4.5,15.7,1.3,27.8,3,6.3,4.8,8.8,6.7,9.5a16.92,16.92,0,0,0,2.8.9A48.32,48.32,0,0,1,136.5,497.61Zm8.4-26.2a40.33,40.33,0,0,1-1.5-7.7c-.1-2.5-.2-2.4-3.8,1.7-4.3,5-5.8,4.6-3.5-1s1-5.6-2.7.2c-3.5,5.4-5.6,6.7-3.9,2.3.8-2.2.7-3-.7-4-1.7-1.2-1.6-1.5.5-5.3,1.2-2.2,1.9-4.4,1.6-5s-3.1-1-6.1-1c-5.6,0-6.2-.6-4.3-4.2.8-1.5.8-2.2,0-2.7s.1-1.6,2-3c2.2-1.6,2.8-2.6,2-3.4s-.7-1.4.1-2.4.8-1.7,0-2.5c-1.9-1.9-1.4-3,.9-1.8,3.1,1.7,3.4.5,1-3.5-1.1-2-1.5-3.3-.9-2.9s3.3,2.1,5.7,3.6c8.1,5.1,10,3.4,7-6.2a44.16,44.16,0,0,1-1.8-12.3v-6.2l1.5,4c1.7,4.6,4.7,8,6.2,7.1.6-.3,1.3-2.4,1.7-4.6.6-3.3,1-4,2.5-3.5,1.2.4,1.9-.1,2.3-1.5.4-1.7,1.2-2.1,3.4-1.8,2.5.3,2.8.7,2.7,3.8a76.56,76.56,0,0,1-2.4,12c-3.3,12.1-3,12.5,6.5,8.9,6-2.4,8-2.8,9.1-1.8s1.8.9,2.9-.1c2.9-2.4,2.8,0-.1,3.1-2.7,2.9-2.8,3.1-1.1,4.4,1.6,1.1,1.3,1.6-3.8,4.4-3,1.7-5.5,3.5-5.5,4,0,1.3,2.7,2.1,7.5,2.1a25.48,25.48,0,0,1,5.9.6c2,.8,1.1,2.4-1.5,2.4a1.85,1.85,0,0,0-.9,3.5c2.2,1.3.9,2.3-2,1.5-4.6-1.3-4.9.9-.5,4.7l3.8,3.3h-3.1c-2.2,0-3.2.5-3.2,1.6s-.6,1.4-2,.9-2-.2-2,1.1-1.3.5-4.8-2.9c-2.6-2.6-5.3-4.7-6-4.7-.9,0-1.2,2.7-1.2,9.6,0,8.2-.2,9.5-1.5,9a1.63,1.63,0,0,0-2.1.9C147.8,478.51,146.6,476.91,144.9,471.41Zm-34.7-40.9c.5-6.3,1.9-5.4,2.7,1.6.5,4,.4,6-.6,7.2-1.3,1.4-1.4,1.3-1.9-1.2a44.87,44.87,0,0,1-.2-7.6Z" transform="translate(0 0)"/><path class="cls-4" d="M151.9,451.91c4.8-2,5.6-3,4.9-6.3-.8-3.6-7.8-10-10.8-10-2.1,0-3.1,1-5.1,5l-2.5,5,2,4C142.7,454.21,145.1,454.61,151.9,451.91Z" transform="translate(0 0)"/><path class="cls-5" d="M287.4,481.21c17.6-3.4,30.3-9.4,40.8-19a106.44,106.44,0,0,1,11.2-9.1c5-3.2,8.5-7.9,14.9-20.4,6-11.6,8.8-19.3,13.5-36.1,1.9-6.9,4.3-14.7,5.3-17.5,1.7-4.6,1.8-6.8,1.2-28-.6-20.5-1-24.4-3.7-36-5.2-22.7-11.5-36.7-23.8-53-11-14.8-35.7-35.5-42.2-35.5-1.6,0-3.6-1.3-5.7-3.7-1.9-2.2-3.6-3.4-4.3-2.9-1.4.9-1.6,3.6-.2,3.6.5,0,6.3,4,12.8,8.9,17.6,13.3,33,30.3,39.4,43.6a70.55,70.55,0,0,0,5.2,9.2c2.6,3.6,4.9,14.2,6.7,30.5,1.2,10.7.1,28.1-2.7,41.7-5.1,25.5-23.6,40.6-40.3,33.1a27.11,27.11,0,0,0-5.3-2c-1.6,0-.4,6.8,2.2,12.8,2.7,6.3,5,7.7,14.9,9.3,3.9.7,7.1,1.5,7.1,1.9,0,1.8-8.5,13.3-12.5,16.8-10.6,9.3-33.5,15.8-36.5,10.2-1.7-3.1-7.5-4.2-14.5-2.5-7.7,1.8-12.7,1.9-17,.1-3.9-1.7-4.1-1.6-2.1,2.2,2.2,4.2,9.6,10.9,14.6,13.1s17.8,2.8,26.6,1.2c16.6-3.2,36.2-16.5,48.4-33,2.5-3.3,4.8-6.1,5.2-6.1,1.1,0-2.1,6.9-5.9,12.9-11.8,18.5-43.7,38.1-62,38.1a39.71,39.71,0,0,1-10.7-2.4c-14.1-5.1-23.7-13.1-27.5-23-2.2-5.6-2.7-4.5-1,1.9s6.5,12.2,14.5,18.1c10.2,7.5,9.8,9.3-1.1,5.5-3-1.1-5.5-1.8-5.5-1.6a17.55,17.55,0,0,0,3.6,2.5c1.9,1.3,3.9,3.3,4.4,4.5,1.1,3,9.5,5.8,16.9,5.7,7-.1,25-5.2,34.9-9.7,8.5-4,18.5-11.7,25.5-19.9,9.9-11.5,24.3-35.4,27.7-45.8.6-2.1,1.6-3.8,2.2-3.8,2.2,0-2.5,16.9-7.7,27.2-7.7,15.4-32,39.6-48.4,48.2-30.2,15.9-65.7,6.5-79.3-21-5.4-11.1-5.8-15.9-2.3-28.4,3-10.7,5.3-15,9.8-18.4,3.8-2.9,11.7-5.1,15.1-4.2,2.4.6,2.4.7.9,3.7-2.3,4.5-2,18.5.4,21.2,5.3,5.8,19.2,9.3,25.1,6.3,9.5-4.9,14.3-22.2,9.1-33.5-4.1-9.1-11.5-16.9-19.8-20.8-4.8-2.3-6.2-2.5-13.2-2-12.6.8-24.6,7.4-30,16.5-1.3,2-2.4,3.9-2.5,4a48,48,0,0,1-6.7-4.6c-7.1-5.4-12.5-7.7-15.7-6.7s-2.4,2.1,3.3,5.3a39.73,39.73,0,0,1,8.5,6.6c2.6,3,3.2,4.5,3.2,8.4,0,4.8-2.3,9.7-4.1,8.7a3.59,3.59,0,0,1-.9-2.5c0-4.8-5.7-17-7.9-17-.5,0,1.1,5.5,3.5,12.3s6.3,18.6,8.8,26.5c5.2,16.5,10.1,24.9,19.3,32.8,10.4,9,16,12.4,23.1,14C263.6,482.31,279.6,482.78,287.4,481.21ZM259.5,429c-3.2-1.3-4.3-2.4-5.6-5.9-.9-2.3-1.5-5.3-1.3-6.5.4-3.2,2.8-3.8,2.8-.8,0,5.2,9.5,7.5,15.5,3.8,7.5-4.6,10.2-12.6,7.1-21.2-1.6-4.6-.7-4.8,2.7-.8s4.1,8,2.7,14.3c-2.3,9.6-6.5,14.7-14.1,17.1-5.8,1.77-5.34,1.77-9.8,0Zm60.4-27.8c-2.3-1-3.5-2.2-3.5-3.4,0-1.8.6-1.9,6.4-1.5,8.5.7,15-2.2,22.8-10.3,6.8-6.8,7.6-5.4,1.9,3.3C340.1,400.78,329.7,405.21,319.9,401.21Z" transform="translate(0 0)"/><path class="cls-2" d="M402.9,460.41c15.7-8.1,19.7-26.7,10-46.5C409,406,397,392.41,388.3,386c-8.1-5.9-6.6-3.2,1.6,3.1,14,10.7,21.4,21.1,23.7,33.1a36.91,36.91,0,0,1-3,22.6c-2.6,5.2-2.8,5.3-7.4,5.6-4.1.3-4.7,0-5.3-2-1.3-4-3.6-5.8-7.5-5.8-5.1,0-6.5,2-6.5,9.2,0,5.3.3,6.2,2.8,8.4C390.3,463.31,397.2,463.41,402.9,460.41Z" transform="translate(0 0)"/><path class="cls-3" d="M241.1,458.91c-2.9-3.2-8.4-15.4-9.7-21.7l-.8-4.1-.1,3.7c-.2,7.6,8.3,24.8,12.3,24.8C243.3,461.61,242.6,460.41,241.1,458.91Z" transform="translate(0 0)"/><path class="cls-3" d="M231.3,428.61c.2-3,3.2-9.5,6.3-13.2,2.8-3.6,1.7-4.7-1.6-1.5-2.7,2.7-6,12.6-5.3,15.5C231,430.51,231.2,430.31,231.3,428.61Z" transform="translate(0 0)"/><path class="cls-6" d="M299.1,372.11c7.4-3.6,10.7-6.1,17.5-12.7,9.9-9.9,14.3-17,16.3-26.4,1.9-8.9,1.9-15.2,0-25.3-3.9-20.4-14.3-39.1-28.4-50.9-7.5-6.2-19.9-12.5-23.9-12-2.3.3-1.1,1.2,7.3,5.8a71.26,71.26,0,0,1,18.2,13.8c4.6,4.6,8.3,8.6,8.3,9s-2.6.7-5.8.7c-7.4,0-12,2.6-15,8.5-2.3,4.7-2.7,6.7-1.4,8.7.6.9,2.3.4,6.6-1.7,7.3-3.7,14-4,18-.9,2.9,2.3,8.3,12.4,11.1,20.7,1.8,5.5,1.6,9.1-.6,19.7-1.8,8.2-7.4,19-11.6,22.3-5.4,4.2-14.9,8.8-21.1,10.1-7.3,1.5-7.9,1.4-10.8-1.4l-2.5-2.5.7,3.6c.5,2.9.4,3.6-.7,3.2-2-.6-4.1-5.4-4.7-10.6-.4-3.9-.3-4.4,1.4-4,1.3.2,2,1.3,2.2,3.6.3,3.3,2.2,3.6,2.2.3,0-2.2,3.1-5.1,5.4-5.1,2.5,0,3-2.4,1.2-5.8-4-7.7-11.1-9.3-18.9-4.1-10.6,7-11.5,19.6-2,28.8,5.3,5.1,13.4,9.1,18.3,9.1C288.5,376.61,293.5,374.78,299.1,372.11Z" transform="translate(0 0)"/><path class="cls-2" d="M419.9,366c7-3.6,10.2-8.7,11.1-17.6.5-5.1.3-7.3-1-9.8a16.31,16.31,0,0,1-1.6-6c0-2.4-3.7-8.7-4.5-7.8-.2.2.5,3.5,1.6,7.3,2.3,8.6,2.5,19.2.3,22.3a15.66,15.66,0,0,1-4.5,3.8c-2.9,1.5-3,1.4-4-1.5-1.8-5.2-10.1-6.3-13.1-1.7-1.8,2.7-.7,6.5,2.7,9.5C411,368,415.1,368.51,419.9,366Z" transform="translate(0 0)"/><path class="cls-2" d="M419.5,316.91c-2.8-5.2-12.6-10.5-22.6-12.2-10.5-1.7-18.5-2.2-18.5-1.3,0,1.3,3.1,2.4,18,6.8a141.77,141.77,0,0,1,17.2,6C419.3,319.11,420.8,319.31,419.5,316.91Z" transform="translate(0 0)"/><path class="cls-2" d="M408.5,275.71c2.4-2.4,2.8-3.5,2.3-6.3-2.1-11.9-6-18.5-12.9-21.8-4.2-2-5.7-2.2-14.4-1.7-9,.5-32.8,5.3-31.7,6.4.3.3,5.7-.3,12-1.2,14.4-2.2,25.5-1.7,31.7,1.3,3.4,1.7,4.9,3.2,6.7,6.9,2.8,6.1,2.8,6.3-.7,6.3s-6.1,3.1-6.1,7.5c0,4.1,1.6,5.5,6.3,5.5A8.37,8.37,0,0,0,408.5,275.71Z" transform="translate(0 0)"/><path class="cls-4" d="M429.8,225.61c-.4-2.7-.4-5-.1-5a69.8,69.8,0,0,1,6.8,3c6.7,3.1,19.4,5.8,22.2,4.7,2.2-.8,2.1-3.1-.4-11.2-1.6-5.2-3-7.6-6.5-11-4-3.7-4.3-4.4-2.7-4.9,3-.9,10.9-9.5,9.8-10.5-.9-.8-12-4.1-13.9-4.1-.3,0-.6,1.1-.6,2.5,0,2.7-.9,3.2-2.8,1.3-.6-.6-1.3-1-1.4-.7s-1,1.8-1.9,3.4-2.1,2.9-2.8,2.7-.4,1,.8,2.7c3.4,4.7,2.5,6.4-2.2,3.9-2.1-1.1-2.1-1.1-.4,1.3.9,1.3,2.4,3.4,3.3,4.6,2.3,3.2.9,4.6-2.6,2.8a14,14,0,0,0-4.7-1.5,13.41,13.41,0,0,1-5.1-2c-4.2-2.6-4.5-2.5-4,.5s-.1,3.1-3.5.5-4.2-2.5-2.3.2c1.6,2.3,2.2,9.8.8,9.8a19,19,0,0,1-3.2-1.5c-4.5-2.6-4.3-1.6,1,4.5,5.8,6.7,9.4,9,14,9h3.1Z" transform="translate(0 0)"/><path class="cls-2" d="M368.7,219c1.2-1.2.8-10.3-.7-13.8-2.8-6.7-17.9-15.7-27.5-16.4-7.2-.5-14.8,2.1-24.1,8.3-7.6,5.1-21.1,17.6-19.5,18.1.5.2,4.5-3,8.8-7.1,8.4-8.1,12.1-10.4,21.2-13,9.7-2.9,26.1-.1,31.5,5.4,2.6,2.6,2.7,2.8,1.6,8.9-.7,4.4-.7,6.8,0,8C361.1,219.11,367.4,220.31,368.7,219Z" transform="translate(0 0)"/><path class="cls-5" d="M433.7,184.11c18.3-5,29.6-18.2,30.5-35.3.7-12.4-3.3-20.9-11.9-25.2-5.4-2.8-8.4-2.5-16.4,1.8s-8.3,5.1-6.4,12.9c1.5,6.6,4.4,9.8,9.8,11.3,4.7,1.2,5,1.9,1.8,4.8-7,6.5-17.6,5.2-31.8-4-18.2-11.7-24.7-23.3-40.1-70.8-4.9-15.3-5.7-23.6-3.3-34.6,3.3-15.3,13.1-31.6,21.7-36,3.2-1.7,12.7-1.8,16.2-.3,2.1,1,2.3,1.5,1.5,3.6-1.6,4.4-1.1,11.1,1.1,13.3,3.7,3.7,9.8,2.2,12.5-3,8.6-16.7-20.8-29.7-41.7-18.3-6.2,3.3-11.7,10.1-19.2,23.3-6.9,12-8.6,17.3-9.3,28.2-.7,9.7.3,14.6,4.7,25.5,3.4,8.1,3.7,11.8,1.4,15.1l-1.5,2.2-7.7-6.1a155.89,155.89,0,0,1-13.9-12.8c-7.5-7.9-8.9-7.7-11,1.5-1.9,7.9-.4,14.8,5.8,27.3a93.45,93.45,0,0,1,4.6,9.7c-.1.1-3.7-.4-8-1.1-9.2-1.4-9.6-1.1-7.8,6.2a51.26,51.26,0,0,0,7.4,15.5c1.9,2.5,16.7,13.6,16.7,12.5a37.69,37.69,0,0,0-2.1-5.2c-2.3-5.2-2.1-6.2,1.2-4.5,2,1.1,2.1,1.1,1.5-1.1-1.9-7.2-1.9-7.1,0-6.7,1,.2,3.7,2.9,5.8,6.1s4.1,5.5,4.3,5.3-1.1-4.5-3-9.5-3.3-9.1-3.2-9.1,3.7,4.5,8,10,7.9,10,8.2,10c.6,0-1.6-4-4.9-8.7-4.1-6.1-7.8-14.3-7.8-17.5,0-4.2,1.4-3.4,4.1,2.4a117.53,117.53,0,0,0,7.1,12.5c4.9,7.5,23.4,31.3,24.4,31.3.8,0-.3-1.7-6.7-10a124.72,124.72,0,0,1-14.3-25.5l-1.7-4,5.6,5.5c5.8,5.7,6.1,5.8,4.4,1.3-.8-2.2.4-1.4,6,4.1a143.09,143.09,0,0,1,9.8,10.8c5.7,8,9.7,11.9,15.5,15l6,3.2-3.4,1.7c-4.3,2.2-8.8,6.4-8.8,8.3,0,2.2,4.7,5.4,10.3,7.1C411.9,185.91,427,185.91,433.7,184.11Z" transform="translate(0 0)"/></svg>