<?xml version="1.0" encoding="utf-8"?>
<!-- Generator: Adobe Illustrator 23.0.1, SVG Export Plug-In . SVG Version: 6.00 Build 0)  -->
<svg version="1.1" id="Layer_1" xmlns="http://www.w3.org/2000/svg" xmlns:xlink="http://www.w3.org/1999/xlink" x="0px" y="0px"
	 viewBox="0 0 704.3 372.7" style="enable-background:new 0 0 704.3 372.7;" xml:space="preserve">
<style type="text/css">
	.st0{fill:#3B0B60;}
</style>
<title>leaf_filigree_L</title>
<g>
	<g id="Layer_1-2">
		<path class="st0" d="M0,245.2c3.8-13.8,11.1-25.6,20.9-35.8c33.5-34.5,74.6-48,121.9-44c1.7,0.1,3.3,0.4,5.9,0.7
			c-3.3-2.9-5.7-4.9-7.9-7.1c-16.2-15.8-24.3-34.7-21.9-57.6c1.1-10,3.7-19.6,6.9-29.1c3.6-11,6.1-22.3,2.8-33.8
			C126,29.5,118,26,109.7,29.6c-6.8,3-8.3,13.4-2.6,18c3,2.4,6.3,2.2,9.2,0s3.5-5.3,2.4-8.5c-1.2-3.7-4.3-2.1-6.8-1.9l0,0
			c4.1-3.1,7.2-2.3,8.5,2.3c1.3,4.4-0.5,7.9-4.3,10.2s-7.7,1.9-10.9-1.4c-5-5.2-4.9-13.4,0.3-18.4c1.2-1.1,2.6-2.1,4.1-2.7
			c8.1-3.2,15.8-0.3,19.8,7.5c3.8,7.3,3.4,15.2,2.2,23c-0.8,5.1-2.3,10-3.4,15.1c-1.5,6.4,0.7,11.5,6,13.8c2.1,1.2,4.8,0.6,6.3-1.3
			c1.3-1.6,1.7-3.3,0.1-4.9c-0.6-0.6-1.3-0.9-2.1-0.9c-1.3,0.3-0.6,1.1-0.3,1.8c0.1,0.4,0.2,0.8,0.1,1.3c-0.6-0.1-1.2-0.3-1.7-0.6
			c-1.2-0.9-1.5-2.7-0.6-3.9c0,0,0-0.1,0.1-0.1c1.5-2,3.6-2.1,5.8-1.1c6,2.7,10.1,10.4,9.6,17.9c-0.3,5.5-2.6,10.3-5.1,15
			c-0.9,1.7-1.7,3.7-0.5,5.7c0.1,0.2,0.7,0.4,0.8,0.3c1.6-1.2,1.7-3.1,2-4.9c0.6-3.4,1.3-6.8,4.8-8.8c-1.2,3.3-1.5,6.8-0.8,10.3
			c0.6,3.7,1.1,4.6,4,0.7c-2.1,11.5-1.5,22.6-6.1,32.9c-1,2.2-0.5,4.9,2.2,5c3.2,0.1,5.4-2.3,6.6-5.3c1.1-2.5,0.3-5.5-1.9-7.2
			c-0.7-0.6-2.7,0.8-2.3-1.4c0.3-1.5,1.7-2,3-2.3c4.2-0.8,6.6,1.4,7.9,5.2c1.1,3,0.7,6.2-0.3,10.6c3.3-3.7,3.5-6.5,2.4-9.7
			c-0.9-2.6-2.8-4.4-4.6-6.5c-6.9-8.1-7.9-19.2-2.4-26.2c3.4-4.3,7.1-5.2,12.3-2.3c-3.5-0.6-6.8-0.3-7.2,3.8
			c-0.3,3.7,1.1,7.3,3.7,10c1.6,1.8,4.5,1.8,4.9-0.3c0.9-5.2,3.3-1.7,4.5-0.9c3.2,2.2,3.1,5.6,2.5,9c-0.3,1.4-1.4,2.8-0.4,4.5
			c0.6-1.4,1.3-2.7,2.2-4c0.7-1.1,2.2-1.4,3.3-0.7c0.2,0.1,0.4,0.3,0.6,0.5c1.3,1.9-1.1,1.1-1.8,1.7c-1.2,1-0.8,2.1-0.3,3.1
			c5,8.5,2.9,15.8-3.3,22.8c-2.2,2.4-3.1,5.7-2.5,8.9c0.2,1.1,0.3,2.6,1.8,2.5c1.2-0.1,0.9-1.6,0.9-2.5c0-3.4,1.5-6.6,4-8.8
			c2.6-2.3,4.2-4.8,3.2-8.9c7.7,7.5,8,12.8,1.9,20.5c-0.7,0.7-1.3,1.5-1.8,2.4c-0.9,2.3,0.7,3.8,2.1,5.1c0.8,0.8,1.7,2.2,2.9,1.5
			c1.6-1,0.7-2.7,0.6-4.1c-0.1-0.8-0.7-1.7,0.4-2.1c0.5-0.2,1.3,0.3,1.8,0.6c1.1,0.7,2.2,1.5,3.2,2.3c2.4,1.9,1.7,6,7.1,6.1
			c3.8,0.1,7.5,5.3,8.2,10.3c0.3,2.4,1.7,3.4,3.4,4.5c10.8,6.9,20.9,15,29.9,24.1c16,16.1,31.7,32.3,47.7,48.4
			c1.2,1.2,2,3.2,4.3,2.8l-0.1,0.4c0-0.1,0.1-0.2,0.1-0.3c-6.6-11.4-11-23.9-13.2-36.9c-2.2-12.8-11-21.7-23.8-23.9
			c-4.4-0.8-8-2.6-9.4-7.1c-2.1-6.8-0.1-13.1,2.8-20.7c0.5,8.8,3,11.3,10.6,9.9s13.8-0.4,18,8.4c0.5-4.4,0.9-7.5,1.3-10.6
			c1.1-8.2,3.7-16.6,3-24.7c-1.6-16.3-7.4-31-21.3-41.4c-5.5-4.1-8.6-9.8-8.1-16.9c0.7-9.8,12.8-26.1,22.3-30.2
			c-0.8,1.1-1.5,1.8-2,2.6c-4.8,6.2-4.4,11.3,1.3,16.7c3.3,3.1,7.2,5.5,11.4,6.9c15.5,5.5,21,15.9,17.3,32.1
			c-2.6,10.9-7.5,21.1-14.2,30c-4.8,6.5-6.7,13.6-7,21.4c-0.1,2.8-0.4,5.6-0.6,8.5c-1,17.4,0.4,34.6,6.2,52.5
			c1.2-9,6.4-12.1,13.5-13.7c6.8-1.6,8.6-5.3,6.4-11.3l0.7-0.7c3.4,3,6,6.7,7.8,10.8c3.1,6.9,1.7,11.8-4.6,15.8
			c-7.8,4.9-10.8,12.7-13,21.1c-0.3,1-0.1,2,0.4,2.9c3.2,5.2,5.9,10.8,10.5,15.1c15.3,14.4,31.3,27.9,48,40.6c1.1,0.8,2,2.3,3.8,1.8
			l0,0.3c0-0.1,0-0.1,0-0.2c-18.5-21-30.6-44.9-31.9-73.3c-0.4-7.3,0.8-14.6,4.9-21c3.1-4.8,7.2-8.6,13.3-8.1
			c6.5,0.6,12.6,2.6,17.6,7.3c-0.2,0.2-0.4,0.4-0.6,0.7c-2.8-1.4-5.3-3.4-8.3-4.6c-11.4-4.2-19.3-0.6-23,10.9
			c-1.9,6.4-2.5,13.1-1.7,19.8c1.8,18.5,9.2,35,19.2,50.3s22,29.3,39.3,37.4c10.1,4.7,14.5,2.3,18-8c2.8-8.1,6.6-10,15.6-5.3
			c-5.2-0.2-5.3,2.9-4.8,6c0.5,3.5,0.5,6.9-3,10c5.6-0.5,11.1-1.8,16.3-3.9c10.7-4.2,21.4-8.5,26.7-20.1c0.9-1.9,2.5-3.5,3.9-5.1
			c8.3-9.5,17.4-12.3,26.9-1.4c5.2,6,9.3,5.4,14.7-1.1c-0.8,4.7-2.5,9.1-5,13.2c-4.6,7.2-9.8,8.7-17.4,4.6c-4.6-2.4-9.4-3-14.5-3.2
			c-9-0.5-15.2,5-22.1,9.3c-1.8,1.1-5.2,1.9-0.3,3.6c2.3,0.8,3,3.3,3.7,5.6c0.8,2.8,1.2,6.2,5.7,5.2c1.6-0.4,1,0.6,0.5,1.3
			c-3.8,5.7-10.8,5.8-14.8,0.2c-3.3-4.7-8.2-7.8-13.5-7.1c-7.5,1-14.8,2.6-22.5,2.6c9.7,4.7,20.1,8.1,30.7,10.1
			c17.7,3.2,35.4,4.4,52.8-1.7c3.2-0.9,5.9-3.1,7.5-6c4-7.3,8.3-14.4,12.6-21.5c8.6-14.3,20.8-23.7,37.5-26.4
			c1.6-0.3,2.8-0.7,3.5-2.3c4.7-10.9,7.3-22.6,7.6-34.4c0.1-3.3-0.8-6.6-5.8-6.4c-1.9,0.1-5.6-0.4-3.2-4.5c0.8-1.4,0-2.8-2-1.8
			c-6.5,3.3-12,0.2-17.3-3.1c-1.5-0.9-5.6-2.4,0.1-3.6c1.4-0.3,2.3-1.7,2-3.1c-0.5-1.7-1.9-0.3-2.8,0c-6,1.4-10.3-1.5-14.2-5.5
			c-1.6-1.6-5-4.2,1-4.4c1.4,0.1,2.6-1.1,2.7-2.5c-0.1-2.3-1.7-0.5-2.6-0.6c-3.5-0.4-5.7-2.7-7.3-5.4s1.5-3.3,2.5-4.7
			c2.6-3.5,1.7-6.2-1.6-8.5c-5-3.5-10.8-5-16.7-6.2c-0.8-0.2-1.9,0-2-1.1c-0.1-1.2,1-1,1.8-1.2c22-5.2,43.4,0,57.2,19.5
			c1.1,1.6,1.1,1.6,2.6,0.3c0.7-0.6,1.3-0.1,1.8,0.2c1.8,1.2,3.5,2.6,5,4.1c5.3,6.1,5.9,13.5,5.8,21.1c-0.2,10.1-4.4,19.5-5,29.5
			c-0.5,7.9-3.9,15-5.3,22.7l-0.1-0.1c22.4-39.1,17.5-90.1-11.7-125.4c-5.1-6.1-11.3-9.6-18.6-11.8c-4.3-1.3-8-1.3-10,4.1
			c-1.6,4.2-4.7,4.3-8.2,1.1c-0.9-1-2.4-1.4-3.7-0.9c-1.5,0.6-0.8,2-0.7,3c0.2,2.7-0.3,5.4-1.6,7.7c-4,7.4-10.8,11.5-18,15.2
			c-0.5,0.3-1.3,0.9-1.6,0c-0.2-0.4,0.3-1.2,0.6-1.7c1.5-3.1,0.4-5.4-2-7.5c-1.5-1.2-2.6-1.8-2.7,0.9c-0.3,11.9-13,17.7-21.8,19.3
			c-0.7,0.1-1.8,0.8-2.2-0.2c-0.2-0.6,0.4-1.5,0.8-2.2c1.5-2.8,2.3-5.6-0.3-8.3c-0.8-0.8-2-2.3-2.6,0.4c-1.4,6.1-6.3,7.5-11.5,8.7
			c-2.9,0.6-4.1,0-4.9-3c-2.7-9.8-7.6-11.6-16.1-6.2c-1.8,1.2-3.5,2.5-5.1,3.9c-5.1,4.5-9.9,9.5-14.1,14.8c-0.4,0.5-1.1,1.2-1.5,1.1
			c-1.1-0.3-0.6-1.4-0.4-2c7.5-30.4,23.5-53.4,54.8-63.2c5.8-1.9,12-2.3,19.4-3.7l-6.7-1c0.4-2.5,2.6-3.3,4.4-4.4
			c1-0.6,2-1.1,3.1-1.6c10.9-4.4,21.6-2.5,31.3,2.8c30.1,16.4,53.2,39.2,63.7,72.9c3.1,9.9,4.9,20.2,5.3,30.6
			c3.6-5.8,5.7-12.5,6.1-19.3c0.9-14.9-2.1-28.1-16.1-36.7c-4.6-2.7-8.5-6.6-11.2-11.2c-1.9-3.3-3-7.3-1-10.5
			c1.4-2.2,1.4-4.1,1.4-6.4c0.2-13,8.3-24.5,20.5-29c-1.9,3.6-4.5,6.5-5.6,10.1c-0.6,2-1.3,4.6,1.3,5.1c6.7,1.3,4.3,4.9,2.1,9.5
			c4.7-3.3,4.7-1.1,4.4,2.1c-0.3,3.6-2.1,6.2-5.7,8.5c6.2-1.5,3.8,1.7,3.4,4.1c-0.8,4.3-5.8,5.5-6.2,10.9c-0.2,3.4-0.1,5.2,2,7.4
			c15.1,16.2,17.4,36.3,6.1,55.5c-0.8,1.4-1.8,2.8-1.8,4.6c-0.1,17.2-4.3,34.2-12.2,49.5c-1.1,2.1-0.8,2.8,1.7,2.9
			c10.2,0.1,20.3,1.6,30.3,2.8c2.8,0.5,5.6-0.5,7.5-2.6c21.5-21.1,36.6-48,43.4-77.4c1.1-4.5,2.6-8.6-2.3-12.7
			c-3.9-3.2-1.6-9.4-4.1-13.9c-1.1-1.9,0.9-1.8,2.2-1c0.5,0.3,1.3,0.8,1.7,0c0.1-0.6,0.1-1.3-0.2-1.8c-0.8-2.2-2.4-2-4.4-1.6
			c-6.2,1.2-8.8-0.4-11.1-6.4c4.7,1.4,9.1-2.5,13.8-0.3c-1.5-2.4-4.6-3.3-7.1-1.9c-7.4,3.8-11.3-4.1-17.2-4.7
			c-0.1,0-0.4-1.1-0.2-1.3c2.3-2.3-0.5-2.4-1.4-3.5c-1.4-1.9-5.7-4.2,0.3-5.9c1.5-0.4,1.1-1.8,0.6-2.9c-1.9-4.3-5.6-5-9.5-1.5
			c0.1-3.9,2.1-5.9,5.3-6.5c7.1-1.2,11.6,2.6,15.2,8.3c1.2-1.9,1.9-4.1,4.5-4.3c-0.4,2-0.4,4,2,4.9c1.7,0.7,3.7,0.4,5.1-0.8
			c0.7-0.5,1.4-1.1,1-2c-0.8-1.8-2.6-1.8-4.2-1.9c-1.3-0.1-2.6,0-3.9,0c-7.6-1.9-14.5-5.7-20.3-10.9c2.6-1.8,5.8,1.2,9.6-0.1
			c-2.6-1.4-4.6-1.1-6.5-1c-3.7,0.2-7.3-0.7-10.5-2.7c-3.3-2.2-5.2-5.8-5.3-9.7c-0.1-1.2,0.7-2.3,1.8-2.7c1-0.4,2.2-0.2,2.6,0.8
			c0.9,2.7-1.4,0.3-1.8,1.1s0,1.3,0.4,1.7c0.7,0.8,1.8,1.1,2.7,0.7c1.4-0.3,2.3-1.6,2.2-3c-0.2-3.7-1.8-6.3-5.7-7.1
			c-4.4-0.9-8.8-1.8-13.1-3.1c-4.7-1.4-8.9-3.9-11.7-8.1c-3-4.8-1.6-11.1,3.2-14.1c0.1-0.1,0.2-0.1,0.3-0.2
			c3.8-2.3,9.1-0.9,11.7,3.1c1.6,2,1.6,4.9-0.1,6.9c-1.4,2.2-4.1,3.1-6.6,2.4c-2.1-0.5-3.8-1.7-3.8-4s1.6-3.3,4-3.8
			c-0.8,2-4,2.2-2.4,4.7c0.9,1.7,2.9,2.5,4.8,1.8c2.2-0.4,3.7-2.6,3.4-4.8c0-0.7-0.2-1.3-0.5-1.9c-1.8-3.4-6-4.8-9.4-3
			c-0.3,0.1-0.5,0.3-0.8,0.5c-4.7,3.4-4.8,9.3-0.2,13.8c5.3,5.3,12.4,6.5,19.3,7.3c16,1.7,30.7,5.6,41.8,18.3
			c0.1,0.3,0.1,0.6,0.2,0.8l0.4-0.4l-0.7-0.3c-7.2-21.9-18.6-41.1-35.7-56.8c-8.9-8.4-19.9-14.2-31.9-16.8
			c-6.4-1.4-12.6-1.1-18.5,1.9s-8.6,7.8-7.8,14.2c0.7,6.2,6.5,12.1,13.3,14.1c6.4,1.9,9-2.4,11.8-6.6l-0.1-0.1
			c-1.3,5.7-4.2,8.4-8.8,8.4c-8.3-0.1-17-7.6-18.3-15.7c-1.2-7.5,3.8-14.6,12.3-17.7c3.8-1.4,7.8-1.3,11.7-2.1l0.4,0.6l0.3-0.5
			l-0.8-0.1c-5.9-4.7-12.9-8-18.1-13.7c-8.7-9.5-14.3-20.3-11-33.5c3.6-14.5,13.8-23,27.7-26.6c11.1-2.8,27.2,8.7,30.4,20.9
			c2.3,8.5-0.9,17-8.4,22.3c-7.1,5-15.9,4.8-23.3-0.5c-6.9-4.9-7.6-12.9-1.6-19.3l0.6,0.6c-4.1,6.7-4.1,11.3,0.1,15.4
			c4.8,4.8,13.7,6.5,20,3.8c6.6-2.9,11.4-10.5,11-17.6c-1-14.3-17.2-25.9-31-22.1c-23.8,6.5-31.7,34.2-14.9,53
			c8.3,9.4,19,16.4,30.9,20.3c8.3,2.7,15.9,6.9,22.7,12.3c23.1,18.8,36.5,44.1,44.9,71.8c10.4,34.3,5.5,67.9-8.5,100.4
			c-7.3,16.8-17.6,32.3-30.2,45.6c-0.8,0.8-2.1,2.1-1.9,2.6c0.6,1.6,2.3,0.7,3.5,0.6c5.1-0.4,10.3-0.8,15.4-1.7
			c16.8-3,32.6-8.5,45.3-20.4c5.6-5.2,10.4-11.3,12.5-18.9c0.3-0.9,0.9-2.1-0.1-2.7c-0.3-0.2-1.4,0.5-2.1,0.9
			c-1.1,0.5-2.2,1.2-3.2,0.2c-1.2-1.2,0.1-2.2,0.8-2.9c1.3-1.5,2.5-3.9,4.6-3.2s1.8,3.3,1.9,5.2c0,1.7-0.3,3.3-0.9,4.8
			c-0.9,2.5-2,4.9-2.9,7.3c-1.6,0.9-2.8,2.1-2.8,4.1l-1.3,1l-0.2,0.3v-0.4l1.2-1c1.1-1.2,2.7-2.2,2.8-4.1
			c9.6-10,13.7-22.4,16.1-35.7c2.6-14.2-1.8-25.9-12.8-35.1c-1.6-1.3-3.9-2.4-1.8-5.2c1.9-2.5,4.2-2.5,6.6-0.9
			c3.5,2.3,5.3,5.9,7.1,9.5c3.9,8.2,3.3,16.9,2.9,25.5c-1.2,21.5-9.6,39.8-26.6,53.2c-18.8,14.9-40.6,21.7-64.5,21.9
			c-3.1-0.1-6.2,1.1-8.4,3.2c-3.2,2.8-2.3,3.3,1.1,4.8c5.2,2.4,10.9,1.1,16.1,3.2c1.3,0.5,3.3,0.7,3,2.7c-0.2,1.4-1.6,2-2.9,2.4
			c-3.9,1.2-11.8-1.5-14.2-4.8c-2.3-3.1-7.8-4-10.7-1.6c-11.6,9.3-24,17.5-37.2,24.3c-25.2,13.1-51.8,22.4-80,25.3
			c-36.6,3.7-69.2-8.5-99.7-27.6c-13.1-8.3-25.1-18.2-37.2-27.8c-6.4-5-13.8-7.3-22-5.5c-1.1,0.2-2.5,0.5-2.4,2
			c0.1,1.1,1.1,1.5,2.1,1.9c2.3,0.8,4.7,1.3,6.3,4.2c-4.9-0.3-8.9-1.8-10.4-6.1c-1.1-3.3,3.5-2.8,5-4.8
			c-12.5-0.5-23.1,3.3-29.8,10.6c-1.5,1.7-4,3.1-1.3,6.1c1.3,1.4-0.5,3.1-2,3.9c-1.3,0.7-3,1.3-4.2-0.1s0.4-2.3,1-3.5
			c3.1-6.2,7.9-11.3,13.9-14.7c-1,0-2.1,0.3-3,0.8c-15.1,7.5-26.6,19.6-38.3,31.5c-0.3,0.4-0.8,0.8-0.8,1.2c0.5,7-5.5,8.3-9.6,11.2
			c-1.3,1.1-3.3,0.9-4.4-0.4c0-0.1-0.1-0.1-0.1-0.2c-1.2-1.7,0.6-2.6,1.6-3.6c2.9-3.1,7.4-4.1,10.2-7.1c8.8-9.4,18-18.3,27.6-26.7
			c1.4-0.2,2.5-0.7,2.7-2.3c0.8,0.4,1.8,0.1,2.2-0.7l0.1,0.1c-0.8-0.4-1.7,0-2.2,0.7c-1.2,0.2-2.4,0.8-3.1,1.9
			c-8.3,3.9-15.6,9.5-23.4,14.2c-23.1,14-48.1,20.2-75,15.9c-22.5-3.6-39.4-15.9-50.9-35.6l0.7-0.6c0.9,1.2,1.7,2.4,2.6,3.6
			c8.4,12,19.1,21.4,32.9,26.8c0.3,0.2,0.5,0.3,0.8,0.5c0.1,0,0.2-0.1,0.3-0.2l-1.2-0.2c-0.8-2.5-3.5-2.7-5.1-4.2
			c-3-2.6-6.2-5.1-6.7-9.5c-0.1-1.2-0.7-2.5,1-2.7c2.4-0.4,4.6,0.7,6.5,2c0.6,0.3,0.8,1,0.4,1.6c0,0.1-0.1,0.1-0.1,0.2
			c-1.4,1.8-3.3,0.8-5.1,0.9c-0.1,0-0.3,0.2-0.5,0.3c1.1,2.7,3.4,4.4,5.6,6.1c8.6,6.3,18.3,9.3,28.8,10c25.4,1.7,48.1-6.1,69.1-19.9
			c9.2-6,18.1-12.4,28.3-16.7c13-5.5,26.1-7.6,39.7-1.9h-0.1c0.5-2.4-1.7-3-3-4.1c-8.1-7.6-16.5-15-24.5-22.8
			c-10.5-10.2-20.8-20.6-31.2-31c-1.9-1.9-4-3.9-6.7-4.1s-1.8,3.1-3,4.5c-1.9,2.3-4,3.5-6.9,2.9c-1-0.1-1.9-0.8-2.1-1.7
			c-0.7-2.5-1.4-2.6-2.9-0.7c-0.8,1.1-1.4,2.2-2,3.4c-2.8,5.3-6.5,8.8-13.2,7.2c-1.6-0.4-3.4,0-4.7,1c-1.1,0.8-0.9,3.5-3,2.4
			c-1.6-0.9-2.2-2.8-2.5-4.7c-0.7-4.1,1.5-7.5,2.9-11.5c-2.1,0.8-3.8,2.2-5.1,4c-2.2,3.4-3.3,7.9-8.8,7.4c-0.8-0.1-1.2,0.8-1,1.5
			c1,4-2.4,3.9-4.5,4.4c-4.4,1-8.2-0.8-11.6-3.4c-2-1.8-4.8-2.5-7.4-1.8c-1.3,0.3-2.6,2.5-3.8,0.9c-0.6-0.8,0.2-2.8,0.6-4.2
			c3.2-10.5,9-19.1,18.8-24.7c-13.3,1.4-25.2,6.1-37,12c0.6,0.5,0.9,0.9,1.4,1.1c3.6,2.4,4.7,5.6,2.7,9.5c-2,3.9-5.2,5.1-9.2,4.2
			c-3.7-0.8-5.6-3.5-5.9-7.2c-0.4-4.4,2-7,6.1-7.8c3.9-0.8,6.9-3.4,10.4-4.7c1.9-0.7,2.5-1.4,0.5-2.8c-2.8-2-2.9-4.8-1.6-7.6
			c1.1-2.7,4-4.3,6.9-3.9c3.1,0.4,5.7,2.3,5.7,5.3c0.1,4.3,2.1,2.9,4.4,2.2c15.2-5.1,30.6-6.3,46.3-2.8c9.1,2,17.7,5.5,26.2,9.3
			c-9.9-11.1-20.2-21.8-31.8-31.1c-10.9-8.6-22-16.6-36-19.7c-7.5-1.6-14.4-5.1-21.4-8.4c-1.4-0.6-2.7-1.5-4.1-1.6
			c-14-1.2-28.1,1.2-40.9,7c-2.9,1.3-5.2,3.5-2.9,7.5c1,1.7,1.2,4.3-2.6,4.3c-2,0-2,1.3-0.5,2.5c4.3,3.7,4.8,8.6,4.1,13.7
			c-0.3,2.1,0.5,7.1-4.3,2.7c-0.5-0.5-1.9-0.1-3-0.1c4.6,6.7,5.2,10.6,2.5,17c-0.7,1.6-1.3,5.4-3.6,0.8c-0.6-1.2-2-2.3-3.3-1.6
			c-1.6,0.9,0.3,1.9,0.6,2.8c1,4-1.7,9-4.7,8.3c-7.2-1.6-8.7-0.3-9,7.1c-0.2,5.3,1.4,10.4,2.2,17.1c-10.1-12-15.7-24.1-14.7-38.8
			c0.6-8.4,3.9-15.7,7.5-23l0.5-0.4c-0.1,0-0.3,0-0.3,0.1c-0.1,0.1-0.1,0.3-0.1,0.4c-1.2,0.2-3.1,1.9-2.7-1.3
			c0.3-3.2,1.5-6.2,3.4-8.7c3.6-4.8,8.7-8.4,14.5-10.2c12.7-4.1,25.6-7.1,38.6-10c3.6-0.8,7.3-0.9,11.6-1.4
			c-1.1-0.7-1.5-1.1-1.9-1.2c-29.2-6-57.9-5.2-85.9,5.9c-26.2,10.3-48.3,26-63.3,50.5c-15.1,24.7-2.4,56,25.6,63.8
			c18.8,5.3,34.8-9.5,31.2-28.7c-0.7-4.7-3.1-8.9-6.7-12c0,0.5,0.1,1,0.2,1.5c1.3,4.9-0.1,8.6-4.4,10.9c-4,2.1-7.8,1.5-11.1-1.4
			c-3.3-3-4.1-7.9-2-11.8c2.4-4.2,5.9-5.4,10.6-4.3c4.1,1,7.7,3.3,10.4,6.5c6.8,8.2,7.3,19.6,1.2,30.3c-5.4,9.5-15,14.1-25.7,12.4
			c-5.7-1-11.2-3.1-16.2-6.2C11,283,3.9,271.8,0,258.2V245.2z M278.1,203.2c0,0.7,0.4,0.9,1,0.9c0,0.8,0.4,1,1.1,0.9
			c0.1,0.8,0.3,1.6,0.4,2.4l1.4,0.8c0.3,0.7,0.6,1.3,0.9,2l0.3,0.1l-0.2-0.1c-0.4-0.6-0.8-1.3-1.1-1.9l-1.4-0.9
			c-0.2-0.8-0.3-1.6-0.5-2.4l-1.1-0.9l-1.1-0.9l-1-1.2h-0.2l0.2,0.1L278.1,203.2z M200.1,242.9L200,243c0.1,0.1,0.1,0.2,0.1,0.3
			l-0.1-0.2L200.1,242.9z M471.8,327.5h0.2l1.9-1.3l2.2-1l2.3-0.3c-0.1-0.1-0.2-0.5-0.3-0.5c-0.8,0-1.6-0.1-1.9,0.9
			c-0.9,0.1-1.8,0-2.2,1l-1.9,1.1L471.8,327.5z M202.8,241.3l0.2-0.2c0.1-0.1,0.1-0.2,0.2-0.3l-0.3,0.3L202.8,241.3z M291.8,142.4
			c0.3,1.3,0.7,2.7,1,4c0.1,0.5,0.2,1,0.4,1.4l0.4,1.8c0-0.6,0-1.3-0.1-1.9c-0.2-0.4-0.5-0.8-0.8-1.2c0-1.4,0.4-2.9-1-4
			c0.3-1.1-0.1-2.2-0.9-3l-0.2-0.8l0.3,0.6C291.2,140.4,291.5,141.4,291.8,142.4L291.8,142.4z M305.4,248c0,0.6,0,1.1-0.1,1.7
			l-1.1,0.6l0.3,0.5l0.8-1.1L305.4,248z M636.5,179c-1.2-1.6-3.3-2.2-4.4-4l-0.2,0.2l0.3-0.1C632.2,178.1,634.7,178.2,636.5,179z
			 M296.4,136c0.7,6.4,0.8,12.9,0,19.4c3.8-12.7,2.3-24.8-4.3-36.3h-0.2l0.3,0.1C293.1,124.8,295.7,130.1,296.4,136z M590.7,320.1
			c1.7-1.3,2.7-2.1-0.4-3c-8.3-2.4-16.6-4.7-25.3-5.5c-1.1-0.1-2.7-0.8-3,0.8c-0.2,1,1.3,1.3,2.2,1.5c3.5,0.8,6,3.5,9.1,5
			c1.3,0.6,3.2,1,2.5,3c-0.6,1.6-2.4,1.8-3.9,1.7c-1.6-0.2-3.7-1-3.2-3c1.3-4.8-3-3.7-4.9-4.9s-3.9-0.7-5.4,1.6
			c-11,16.6-25.8,30.4-43.1,40.3C542.6,350,568.2,337.3,590.7,320.1z M521.7,349.1c11.7-8.4,21.5-19.1,29-31.4
			c0.6-0.9,1.8-2.1,1.1-3.1c-0.5-0.6-2.2-0.5-3.3-0.3c-5.4,0.7-10.6,2.6-15.2,5.6c2.4,0.7,6-1.5,6.7,1.9c0.8,4-2,6.8-4.9,9.2
			c-0.3,0.3-1,0.5-1.3,0.4c-0.8-0.4-0.4-1.2,0-1.7c1-1.3,2-2.7,3-3.9c0.8-1,2.3-2,1.5-3.3s-2.5-0.7-3.8-0.3
			c-7.3,2.1-12.3,7.2-16.2,13.4c-4.5,7.1-8.5,14.6-13.1,22.6C511,355.9,516.6,352.8,521.7,349.1L521.7,349.1z M592.2,315.9
			c0.9,0.3,2.1,0.7,2.8,0.3c1.4-0.8,3.6-2,3.6-3c0.1-1.8-2.3-1.1-3.5-1.3c-9.5-0.9-19-2.7-28.7-2.3
			C575.2,311.1,583.9,312.9,592.2,315.9L592.2,315.9z M53.2,250.2c-3.5,0.2-5.6,2.1-5.6,5.6c-0.2,2.3,1.6,4.4,3.9,4.6
			c0.3,0,0.5,0,0.8,0c3.4-0.1,4.9-2.2,5.3-5.3C57.1,252.4,56.6,250,53.2,250.2z M168.8,250.1c-0.1-2.1-1.2-4-3.7-3.9
			c-2.2-0.1-4,1.6-4,3.8c0,0.2,0,0.3,0,0.5c0,2.4,1.4,3.6,3.7,3.9C167.4,254.1,168.9,252.6,168.8,250.1L168.8,250.1z M181.3,233.1
			c-0.1-1.8-1.1-3.3-3.1-3.2c-2.2,0.1-3.3,1.5-3.2,3.7c0.1,1.7,1.3,3.1,3,3.4C180.1,236.5,181.4,235.2,181.3,233.1L181.3,233.1z
			 M149.6,128c0.1,0.2,0.7,0.5,0.8,0.4c1.9-1.8,1.9-4.1,1.6-7C150,123.6,148.4,125.4,149.6,128z M628,162.2c-0.4,0-1,0.3-0.4,0.8
			c0.6,0.3,1.2,0.4,1.9,0.4c0.1,0,0.2-0.5,0.4-1C629.3,162.3,628.6,162.3,628,162.2z M303.5,255.6c0.1-0.2,0.2-0.4,0.2-0.6
			c0-0.1,0-0.3-0.1-0.4l-0.2,0.6C303.4,255.4,303.4,255.5,303.5,255.6L303.5,255.6z"/>
		<path class="st0" d="M538.8,60.7c-7.3-6.2-11.5-13.7-14.7-22c-3.2-8-9.1-14.3-16-19.4c-9.7-6.8-22.6-6.8-32.3,0
			c-1.8,1.3-2.6,2.2,0.2,3.1c2.5,0.9,3.5,3,3.8,5.4c0.3,2.2,1.1,4.2,2.4,6c1,1.6,3.2,3.7,4.1,3.2c4.3-2.6,8.3,2.6,12.5-0.2
			c1.8-1.2,4.1-0.4,6.5,0.2c-2.7,1.8-6.2,2.5-7.8,5.5c-0.9,1.6-3.5,4.6,1.7,4c1.6-0.1,3,0.7,3.7,2.1c2.9,4.6,6.9,4.5,11.4,3
			c4-1.3,3.8-1.2,4.7,2.7c0.6,2.3,3,3.9,5,2.8c3.7-1.8,6.1,0,8.8,1.7C534.3,59.7,536,60.8,538.8,60.7z"/>
		<path class="st0" d="M533.5,72.4c-3.6-1.9-5.9-4.3-8.6-6.1c-3.2-2-5.1-1.3-7.5,0.2c-1,0.6-1.8,2-2.7,2.1c-7,0.6-2.9,3.9-1.5,6.1
			c5.6,8.2,15.3,10.2,26.4,5.8c6.3-2.5,11.2-7.9,18.4-8.5c0.3,0,0.5-0.6,0.8-1c-0.4-0.3-0.8-0.8-1.1-0.8c-3.1,0.1-5.8-0.5-7.9-3.1
			c-0.1-0.1-0.4-0.2-0.5-0.1c-4.5,4.3-6.1-1.3-9-2.6c-2.7-1.2-5.4,1.8-8.1-0.4c-0.5-0.4-1.2,1.3-1.2,2.3
			C531,68.3,532.4,69.7,533.5,72.4z"/>
		<path class="st0" d="M105.9,155.8c5.1-0.8,8.1-4.2,8-8.9c-0.2-5.4-4.5-9.8-9.9-10.1c-5.2-0.4-9.9,3-11,8.1c-1.3,6.2,2.2,11.5,8,12
			c0.6,0.1,1.6,0,1.8-0.3c0.6-1.1-0.5-1.2-1.2-1.6c-1-0.6-1.9-1.3-2.6-2.1c-1.9-2.3-1.8-5.6,0.2-7.8c1.6-2.1,4.5-2.6,6.8-1.3
			c2.6,1.4,3.6,3.7,3.2,6.7C108.9,152.7,106.8,153.9,105.9,155.8z"/>
		<path class="st0" d="M133.4,310.9c-5.4-11-6.1-22.2-0.8-33.4c0.8-1.7,1.6-3.4-0.7-4.6c-2.5-1.4-4.6-0.8-6,1.5
			c-2.7,4.3-3.1,9-2.5,13.9c1,8.6,5.1,16,9.3,23.3L133.4,310.9z"/>
		<path class="st0" d="M365,242.1h-0.2c-6.6,2.6-7.9,8.8-2.6,13.4c3.6,3.2,7.7,3.7,11.9,1.1c4.2-2.6,6.3-7.6,5.4-12.4
			c-1-4.4-3.9-7.6-6.9-10.7c0.2-0.2,0.4-0.5,0.6-0.7c5.8,4,9,9.3,7.8,16.5c-1,6-6.1,10.4-12.2,10.6c-5.4-0.1-10-3.8-11.3-9
			c-1-4.5,0.8-7.9,4.8-9.9c3.6-1.8,6.9-1.1,9.4,2c1.9,2,1.8,5.1-0.2,7c-0.1,0.1-0.2,0.2-0.3,0.2c-2.1,2.1-4.7,2.6-7.3,0.7
			s-2.4-4.5-0.7-7c0.4-0.7,0.9-1.3,1.3-2L365,242.1z M367.6,246c-1.1-0.2-2.1,0.6-2.3,1.7c0,0.1,0,0.2,0,0.3
			c-0.1,1.2,0.7,2.2,1.9,2.3c0.1,0,0.1,0,0.2,0c1.3,0.1,2-0.8,2.3-1.9C369.7,247.1,368.8,246.1,367.6,246L367.6,246z"/>
		<path class="st0" d="M81.2,132.3c0-4.1-3.1-7.5-7.1-7.9c-4-0.3-7.5,2.5-8.1,6.5c-0.5,3.9,0.9,6.9,4.8,8.1c0.6,0.2,1.6,0.3,1.8,0
			c0.8-1-0.4-1.3-1-1.7c-2.6-2-3-4.4-1-6.8c1.2-1.6,3.4-1.9,5-0.8c0.1,0.1,0.2,0.2,0.3,0.3c2.4,1.9,2.4,4.1,0.8,6.6
			c-0.4,0.5-1.7,1-0.6,1.8c0.3,0.2,1.3-0.1,1.8-0.5C79.9,136.4,81.5,134.7,81.2,132.3z"/>
		<path class="st0" d="M568.3,24.5c1.8-0.8,3.7-1.5,5.6-2.1c1.7-0.4,3.6-0.5,5.3-0.9c-4.1-0.5-8.1-0.8-11.5,2.3L568.3,24.5z"/>
		<path class="st0" d="M575.1,101.3l0.5-2.3h-0.4c0,0.8,0,1.6,0,2.4L575.1,101.3z"/>
		<path class="st0" d="M111,38.2l-0.7,0.8l0.3,0.2L111,38.2L111,38.2z"/>
		<polygon class="st0" points="315,219.3 314.9,219 315,219.2 		"/>
		<path class="st0" d="M315,219.2c0.2,0.5,0.4,0.9,0.6,1.4l0.7-0.7c-0.3-0.5-0.7-1-1.4-0.6L315,219.2z"/>
		<path class="st0" d="M111,38.2c0.7,0.1,1-0.3,1.1-1l0,0C111.4,37.2,111.1,37.6,111,38.2L111,38.2z"/>
	</g>
</g>
</svg>
