<?xml version="1.0" encoding="utf-8"?>
<!-- Generator: Adobe Illustrator 23.0.1, SVG Export Plug-In . SVG Version: 6.00 Build 0)  -->
<svg version="1.1" id="Layer_1" xmlns="http://www.w3.org/2000/svg" xmlns:xlink="http://www.w3.org/1999/xlink" x="0px" y="0px"
	 viewBox="0 0 704.3 372.7" style="enable-background:new 0 0 704.3 372.7;" xml:space="preserve">
<style type="text/css">
	.st0{fill:#3B0B60;}
</style>
<title>leaf_filigreeR</title>
<g>
	<g id="Layer_1-2">
		<path class="st0" d="M704.3,258.2c-3.9,13.6-11,24.9-23.3,32.4c-4.9,3.1-10.4,5.2-16.2,6.2c-10.6,1.8-20.3-2.8-25.7-12.4
			c-6.1-10.7-5.7-22.1,1.2-30.4c2.6-3.3,6.3-5.6,10.4-6.5c4.7-1.1,8.2,0.1,10.6,4.3c2.2,3.9,1.4,8.9-1.9,11.9
			c-3.3,2.9-7.1,3.5-11.1,1.4c-4.3-2.3-5.7-5.9-4.4-10.9c0.1-0.5,0.1-1,0.2-1.5c-3.6,3.1-5.9,7.3-6.7,12
			c-3.6,19.2,12.4,34,31.2,28.8c28-7.8,40.7-39.1,25.6-63.8c-14.9-24.5-37-40.1-63.3-50.5c-28-11-56.7-11.9-85.9-5.9
			c-0.4,0.1-0.8,0.5-1.9,1.2c4.3,0.5,8,0.6,11.5,1.4c13,2.9,25.9,5.9,38.6,10c5.8,1.8,10.9,5.3,14.5,10.2c1.9,2.6,3,5.6,3.4,8.7
			c0.4,3.2-1.5,1.4-2.7,1.3c0-0.2,0-0.3-0.1-0.4c0-0.1-0.2-0.1-0.3-0.1l0.5,0.4c3.6,7.3,7,14.7,7.5,23c1,14.6-4.6,26.7-14.7,38.8
			c0.9-6.7,2.4-11.8,2.2-17.1c-0.3-7.4-1.8-8.7-9-7.1c-3,0.7-5.7-4.3-4.7-8.3c0.3-1,2.2-1.9,0.5-2.8c-1.3-0.8-2.7,0.3-3.3,1.6
			c-2.3,4.6-2.9,0.8-3.6-0.8c-2.7-6.4-2-10.3,2.5-17c-1.2,0-2.5-0.4-3,0.1c-4.8,4.4-4-0.7-4.3-2.7c-0.7-5.1-0.2-10,4.1-13.7
			c1.5-1.2,1.6-2.5-0.5-2.5c-3.8,0-3.5-2.6-2.5-4.3c2.3-4,0-6.2-2.9-7.5c-12.8-5.8-26.9-8.2-40.9-7c-1.4,0.1-2.8,1-4.1,1.6
			c-7,3.3-13.9,6.7-21.4,8.4c-14,3.1-25.2,11.1-36,19.7c-11.6,9.2-21.9,19.9-31.8,31.1c8.5-3.9,17.1-7.3,26.3-9.3
			c15.7-3.5,31.1-2.3,46.3,2.8c2.2,0.7,4.2,2.1,4.3-2.2c0.1-3.1,2.6-5,5.7-5.3c2.9-0.5,5.8,1.2,6.9,3.9c1.3,2.8,1.2,5.6-1.6,7.6
			c-2,1.5-1.4,2.1,0.5,2.8c3.6,1.4,6.6,3.9,10.4,4.7c4.1,0.9,6.4,3.4,6.1,7.8c-0.3,3.7-2.2,6.3-5.9,7.2c-4,0.9-7.3-0.5-9.2-4.2
			s-0.9-7.1,2.7-9.5c0.5-0.4,0.9-0.7,1.3-1.1c-11.8-5.9-23.8-10.6-37-12c9.8,5.6,15.6,14.2,18.8,24.7c0.4,1.4,1.2,3.4,0.6,4.2
			c-1.2,1.6-2.5-0.5-3.8-0.9c-2.6-0.7-5.4,0-7.4,1.8c-3.4,2.6-7.2,4.4-11.6,3.4c-2.1-0.5-5.5-0.3-4.5-4.4c0.1-0.6-0.3-1.5-1-1.5
			c-5.5,0.5-6.6-4-8.8-7.4c-1.2-1.8-3-3.2-5.1-4c1.5,4,3.6,7.4,2.9,11.5c-0.3,1.9-0.9,3.8-2.5,4.7c-2.1,1.2-2-1.6-3-2.4
			c-1.3-1-3.1-1.4-4.7-1c-6.6,1.6-10.4-2-13.2-7.2c-0.6-1.2-1.2-2.4-2-3.4c-1.6-1.9-2.2-1.8-2.9,0.7c-0.3,1-1.2,1.6-2.2,1.6
			c-3,0.6-5-0.7-6.9-2.9c-1.2-1.5-0.4-4.8-3-4.5s-4.8,2.2-6.7,4.1c-10.4,10.3-20.7,20.8-31.2,31c-8,7.8-16.4,15.1-24.5,22.8
			c-1.2,1.1-3.4,1.7-3,4.1h-0.1c13.5-5.7,26.7-3.6,39.6,1.9c10.2,4.3,19.1,10.7,28.3,16.7c21,13.8,43.7,21.6,69.1,19.9
			c10.5-0.7,20.2-3.7,28.8-10c2.2-1.7,4.5-3.4,5.6-6.1c-0.3-0.2-0.4-0.3-0.5-0.3c-1.7,0-3.7,0.9-5.1-0.9c-0.4-0.5-0.3-1.2,0.2-1.6
			c0,0,0.1-0.1,0.1-0.1c2-1.3,4.1-2.4,6.5-2c1.7,0.3,1.2,1.5,1,2.7c-0.5,4.4-3.6,6.9-6.7,9.5c-1.7,1.4-4.3,1.7-5.1,4.2l-1.2,0.2
			c0.1,0.1,0.2,0.2,0.3,0.2c0.3-0.1,0.6-0.3,0.8-0.5c13.8-5.5,24.5-14.8,32.9-26.8c0.8-1.2,1.7-2.4,2.6-3.6l0.7,0.6
			c-11.5,19.7-28.4,32-50.8,35.6c-26.9,4.3-51.8-1.9-75-15.9c-7.8-4.7-15.1-10.3-23.4-14.3c-0.7-1-1.8-1.7-3.1-1.9
			c-0.4-0.8-1.4-1.1-2.2-0.7l0.1-0.1c0.4,0.8,1.4,1.1,2.2,0.7c0.1,1.6,1.3,2.1,2.7,2.3c9.7,8.4,18.9,17.3,27.6,26.7
			c2.8,3,7.3,4,10.2,7.1c0.9,1,2.8,1.9,1.6,3.6c-1,1.4-2.9,1.7-4.3,0.7c-0.1,0-0.1-0.1-0.2-0.1c-4.1-2.9-10.2-4.2-9.6-11.2
			c0-0.4-0.5-0.9-0.8-1.2c-11.7-11.9-23.1-24-38.5-31.4c-0.9-0.5-2-0.7-3-0.8c6,3.4,10.9,8.5,13.9,14.7c0.6,1.1,2.1,2.1,1,3.5
			s-2.9,0.8-4.2,0.1c-1.5-0.8-3.2-2.5-2-3.9c2.8-3,0.2-4.5-1.3-6.1c-6.7-7.4-17.3-11.1-29.8-10.6c1.5,2,6.2,1.5,5,4.8
			c-1.5,4.2-5.5,5.8-10.4,6.1c1.6-2.8,4-3.4,6.3-4.2c1-0.4,2-0.8,2.1-1.9c0.1-1.5-1.3-1.8-2.4-2c-8.2-1.8-15.6,0.5-22,5.5
			c-12.2,9.6-24.1,19.5-37.2,27.8c-30.5,19.1-63.1,31.3-99.7,27.6c-28.2-2.9-54.8-12.2-80-25.3c-13.1-6.9-25.6-15-37.1-24.3
			c-3-2.4-8.4-1.5-10.7,1.6c-2.4,3.3-10.3,6-14.2,4.8c-1.3-0.4-2.8-1-2.9-2.4c-0.2-2,1.7-2.1,3-2.7c5.1-2,10.8-0.8,16.1-3.2
			c3.4-1.5,4.3-2,1.1-4.8c-2.3-2.2-5.3-3.3-8.4-3.2c-23.9-0.2-45.7-7-64.5-21.9C9.9,277.1,1.5,258.9,0.3,237.4
			c-0.5-8.6-1-17.4,2.9-25.5c1.7-3.6,3.6-7.2,7.1-9.5c2.4-1.6,4.6-1.6,6.6,0.9c2.1,2.7-0.2,3.8-1.8,5.2c-11,9.3-15.3,20.9-12.8,35.1
			c2.4,13.2,6.5,25.7,16.1,35.7c0.1,1.9,1.7,2.9,2.8,4.1l1.3,1v0.4l-0.1-0.3l-1.3-1c0-2-1.2-3.2-2.8-4.1c-1-2.4-2.1-4.8-2.9-7.3
			c-0.6-1.5-0.9-3.2-0.9-4.8c0.1-1.9-0.1-4.5,1.9-5.2s3.4,1.7,4.6,3.2c0.7,0.8,2,1.7,0.8,2.9c-1,1-2.2,0.4-3.2-0.2
			c-0.7-0.4-1.8-1.1-2.1-0.9c-1,0.7-0.3,1.9-0.1,2.7c2.2,7.6,6.9,13.7,12.5,18.9C41.5,300.4,57.3,306,74.1,309
			c5.1,0.9,10.3,1.2,15.4,1.7c1.2,0.1,2.9,1,3.5-0.6c0.2-0.6-1.2-1.8-1.9-2.6c-12.7-13.3-22.9-28.7-30.2-45.6
			c-14.1-32.5-18.9-66.1-8.5-100.4c8.4-27.7,21.7-53,44.9-71.8c6.8-5.4,14.5-9.6,22.7-12.3c11.9-3.9,22.6-11,30.9-20.4
			c16.7-18.8,8.8-46.5-14.9-53c-13.9-3.8-30,7.8-30.9,22.1c-0.4,7,4.3,14.7,11,17.6c6.3,2.7,15.2,1,20-3.8c4.1-4.2,4.1-8.7,0.1-15.4
			l0.6-0.6c5.9,6.4,5.3,14.3-1.6,19.3c-7.4,5.3-16.3,5.5-23.3,0.5c-7.4-5.3-10.6-13.7-8.4-22.3c3.2-12.2,19.2-23.7,30.4-20.9
			C147.7,4,157.8,12.6,161.4,27c3.3,13.3-2.3,24-11,33.5c-5.2,5.7-12.2,9-18.1,13.7l-0.8,0.1l0.3,0.5l0.4-0.6
			c3.9,0.8,7.9,0.7,11.7,2.1c8.5,3.1,13.4,10.3,12.3,17.7c-1.3,8.1-10,15.6-18.3,15.7c-4.6,0-7.5-2.7-8.8-8.4l-0.1,0.1
			c2.8,4.1,5.4,8.5,11.8,6.6c6.8-2,12.6-7.9,13.3-14.1c0.7-6.4-1.8-11.2-7.8-14.2s-12.1-3.3-18.5-1.9c-11.9,2.6-23,8.4-31.9,16.8
			c-17,15.7-28.4,34.9-35.7,56.8l-0.7,0.3L60,152l0.2-0.8c11-12.7,25.8-16.6,41.8-18.3c6.9-0.7,13.9-2,19.3-7.3
			c4.6-4.6,4.4-10.4-0.2-13.8c-3.2-2.2-7.5-1.4-9.7,1.7c-0.2,0.3-0.3,0.5-0.5,0.8c-0.3,0.6-0.4,1.3-0.4,1.9
			c-0.3,2.3,1.2,4.4,3.4,4.8c1.8,0.6,3.8-0.2,4.8-1.8c1.5-2.5-1.6-2.7-2.4-4.7c2.4,0.5,4,1.5,4,3.8s-1.7,3.5-3.8,4
			c-2.5,0.8-5.2-0.2-6.6-2.4c-1.6-2-1.7-4.9-0.1-6.9c2.7-4,7.9-5.5,11.7-3.1c4.9,2.8,6.6,9.1,3.7,14c-0.1,0.1-0.1,0.2-0.2,0.4
			c-2.8,4.2-7,6.7-11.7,8.1c-4.3,1.3-8.7,2.1-13.1,3.1c-3.9,0.8-5.5,3.4-5.7,7.1c-0.1,1.4,0.8,2.7,2.2,3c1,0.4,2.1,0.1,2.7-0.7
			c0.4-0.5,0.9-1,0.4-1.7s-2.7,1.6-1.8-1c0.4-1.1,1.5-1.2,2.6-0.8c1.2,0.4,1.9,1.5,1.8,2.7c-0.1,3.9-2.1,7.5-5.3,9.6
			c-3.1,2-6.8,3-10.4,2.7c-1.9,0-3.9-0.4-6.5,1c3.8,1.4,7-1.7,9.6,0.1c-5.8,5.2-12.8,8.9-20.3,10.9c-1.3,0-2.6-0.1-3.9,0
			c-1.6,0.1-3.4,0.1-4.2,1.9c-0.4,0.9,0.3,1.5,1,2c1.4,1.2,3.4,1.5,5.1,0.8c2.4-0.9,2.3-2.8,2-4.9c2.6,0.2,3.3,2.4,4.5,4.3
			c3.6-5.7,8.2-9.5,15.3-8.3c3.2,0.6,5.2,2.6,5.3,6.5c-3.9-3.5-7.6-2.8-9.5,1.5c-0.5,1.1-0.9,2.4,0.6,2.9c5.9,1.8,1.7,4.1,0.3,5.9
			c-0.9,1.1-3.7,1.1-1.4,3.5c0.2,0.2-0.1,1.3-0.3,1.3c-6,0.6-9.9,8.4-17.2,4.7c-2.5-1.4-5.6-0.5-7.1,1.9c4.7-2.2,9.1,1.7,13.8,0.3
			c-2.3,6-5,7.6-11.1,6.4c-2.1-0.4-3.6-0.6-4.4,1.6c-0.3,0.6-0.4,1.2-0.2,1.8c0.4,0.8,1.1,0.3,1.7,0c1.3-0.8,3.3-1,2.2,1
			c-2.5,4.4-0.2,10.7-4.1,13.9c-4.9,4-3.3,8.1-2.3,12.7c6.8,29.4,21.8,56.2,43.4,77.4c1.9,2.1,4.7,3.1,7.5,2.6
			c10.1-1.3,20.1-2.7,30.3-2.8c2.5,0,2.8-0.8,1.7-2.9c-8-15.3-12.2-32.2-12.3-49.5c0-1.8-1-3.1-1.8-4.6c-11.2-19.3-9-39.3,6.2-55.5
			c2.1-2.2,2.2-4.1,1.9-7.4c-0.3-5.4-5.4-6.7-6.2-10.9c-0.4-2.4-2.8-5.6,3.4-4.1c-3.6-2.4-5.4-4.9-5.7-8.5c-0.3-3.1-0.3-5.4,4.4-2.1
			c-2.2-4.6-4.6-8.3,2.1-9.5c2.5-0.5,1.9-3.1,1.3-5.1c-1.1-3.6-3.7-6.5-5.6-10.1c12.1,4.5,20.3,15.9,20.5,28.9
			c0,2.2,0.1,4.1,1.4,6.4c2,3.2,0.9,7.1-1,10.5c-2.7,4.6-6.6,8.5-11.2,11.3c-14,8.5-17,21.8-16.1,36.7c0.4,6.9,2.5,13.5,6.1,19.3
			c0.5-10.4,2.3-20.7,5.4-30.7c10.5-33.7,33.6-56.5,63.7-72.9c9.7-5.3,20.4-7.2,31.3-2.8c1.1,0.4,2.1,1,3.1,1.6
			c1.8,1.1,4,1.9,4.4,4.4l-6.7,1c7.4,1.3,13.5,1.8,19.3,3.7c31.2,9.9,47.3,32.8,54.8,63.2c0.2,0.7,0.7,1.7-0.4,2
			c-0.4,0.1-1.1-0.6-1.5-1.1c-4.2-5.4-8.9-10.4-14-14.9c-1.6-1.4-3.3-2.7-5.1-3.9c-8.5-5.4-13.4-3.6-16.1,6.2c-0.8,3-2.1,3.6-4.9,3
			c-5.3-1.1-10.1-2.5-11.5-8.7c-0.6-2.7-1.9-1.2-2.6-0.4c-2.6,2.6-1.8,5.4-0.3,8.3c0.4,0.7,1,1.6,0.8,2.2c-0.4,1-1.4,0.3-2.2,0.2
			c-8.8-1.6-21.5-7.4-21.7-19.3c-0.1-2.7-1.2-2.1-2.7-0.9c-2.4,2-3.5,4.4-2,7.5c0.3,0.6,0.7,1.3,0.6,1.7c-0.4,0.9-1.1,0.3-1.6,0
			c-7.2-3.6-14-7.8-18-15.2c-1.3-2.4-1.8-5.1-1.6-7.7c0.1-1,0.7-2.5-0.7-3c-1.3-0.4-2.7-0.1-3.7,0.9c-3.4,3.2-6.6,3.1-8.2-1.1
			c-2.1-5.4-5.7-5.4-10-4.1c-7.3,2.2-13.6,5.7-18.6,11.8c-29.2,35.3-34,86.3-11.7,125.4c0,0-0.1,0.1-0.1,0.1
			c-1.4-7.6-4.8-14.8-5.3-22.7c-0.6-10-4.8-19.4-5-29.5c-0.1-7.6,0.4-15.1,5.8-21.1c1.5-1.5,3.2-2.9,5-4.1c0.5-0.4,1.1-0.8,1.8-0.2
			c1.5,1.2,1.5,1.2,2.6-0.3C161.5,209,183,203.8,205,209c0.7,0.2,1.9,0,1.8,1.2c-0.1,1-1.2,0.9-2,1.1c-5.9,1.1-11.7,2.7-16.7,6.2
			c-3.3,2.3-4.1,5-1.6,8.5c1,1.4,4.1,2,2.5,4.7s-3.8,5-7.3,5.4c-0.9,0.1-2.5-1.7-2.6,0.6c0.1,1.4,1.3,2.6,2.7,2.5
			c6.1,0.1,2.6,2.7,1,4.4c-3.9,3.9-8.2,6.9-14.2,5.5c-1-0.2-2.3-1.7-2.8,0c-0.3,1.4,0.6,2.8,2,3.1c5.7,1.1,1.6,2.6,0.1,3.6
			c-5.3,3.3-10.7,6.4-17.2,3.1c-2-1-2.8,0.5-2,1.8c2.3,4.1-1.4,4.6-3.2,4.5c-5-0.3-5.9,3.1-5.7,6.4c0.3,11.9,2.9,23.5,7.6,34.4
			c0.7,1.6,1.9,2,3.5,2.3c16.8,2.7,28.9,12.1,37.5,26.4c4.3,7.1,8.6,14.3,12.6,21.5c1.6,2.9,4.3,5.1,7.5,6
			c17.5,6.1,35.1,4.9,52.8,1.7c10.6-2,21-5.4,30.7-10.1c-7.7,0-15-1.6-22.5-2.6c-5.4-0.7-10.2,2.4-13.5,7.1c-4,5.6-11,5.5-14.8-0.2
			c-0.4-0.7-1.1-1.7,0.5-1.3c4.5,1,4.8-2.4,5.6-5.2c0.7-2.3,1.4-4.8,3.8-5.6c4.9-1.8,1.5-2.6-0.3-3.6c-6.9-4.2-13.1-9.7-22.1-9.3
			c-5,0.3-9.9,0.8-14.4,3.2c-7.6,4.1-12.8,2.6-17.4-4.6c-2.5-4-4.2-8.5-5-13.2c5.4,6.6,9.4,7.1,14.7,1.1c9.4-10.8,18.5-8.1,26.8,1.4
			c1.4,1.6,3.1,3.2,3.9,5.1c5.3,11.6,16,15.9,26.7,20.1c5.2,2.1,10.7,3.4,16.3,3.9c-3.4-3.1-3.5-6.5-3-10c0.4-3.1,0.4-6.1-4.8-6
			c9-4.7,12.9-2.8,15.6,5.3c3.5,10.3,7.9,12.7,18,8c17.3-8.1,29.1-21.9,39.3-37.4s17.4-31.8,19.2-50.3c0.8-6.6,0.2-13.4-1.7-19.8
			c-3.7-11.5-11.7-15.1-23-10.9c-3,1.1-5.5,3.1-8.3,4.6l-0.6-0.7c5-4.6,11.1-6.7,17.6-7.3c6.1-0.6,10.2,3.3,13.3,8.1
			c4.2,6.4,5.3,13.7,4.9,21c-1.4,28.5-13.4,52.4-32,73.4c0,0.1,0,0.1,0,0.2l0.1-0.3c1.8,0.6,2.7-0.9,3.8-1.8
			c16.7-12.7,32.7-26.3,48-40.6c4.6-4.3,7.3-9.9,10.5-15.1c0.6-0.8,0.7-1.9,0.4-2.9c-2.2-8.3-5.2-16.1-13-21.1
			c-6.4-4-7.7-8.9-4.6-15.8c1.7-4.2,4.4-7.9,7.8-10.8l0.7,0.7c-2.1,6-0.4,9.7,6.4,11.3c7.2,1.6,12.4,4.8,13.5,13.7
			c5.8-17.9,7.2-35.1,6.2-52.5c-0.2-2.8-0.5-5.6-0.6-8.5c-0.3-7.8-2.2-14.8-7-21.4c-6.8-8.9-11.6-19.1-14.2-30
			c-3.7-16.2,1.8-26.6,17.3-32.1c4.3-1.5,8.2-3.8,11.5-6.9c5.7-5.4,6-10.5,1.2-16.7c-0.6-0.8-1.2-1.5-2-2.6
			c9.6,4.1,21.6,20.5,22.4,30.2c0.5,7.1-2.6,12.8-8.1,16.9c-13.9,10.4-19.7,25.1-21.3,41.4c-0.8,8.1,1.9,16.4,3,24.7
			c0.4,3.1,0.7,6.1,1.3,10.6c4.1-8.8,10.3-9.8,18-8.4s10.1-1.1,10.6-9.9c2.9,7.6,4.9,13.9,2.8,20.7c-1.4,4.6-5,6.4-9.4,7.1
			c-12.8,2.3-21.6,11.1-23.8,23.9c-2.2,13-6.7,25.5-13.3,36.9l0.1,0.3l-0.2-0.4c2.3,0.4,3.1-1.6,4.3-2.8
			c15.9-16.1,31.7-32.4,47.6-48.4c9.1-9.1,19.1-17.2,29.9-24.1c1.7-1.1,3.1-2,3.4-4.5c0.6-5,4.4-10.2,8.2-10.3
			c5.4-0.1,4.7-4.2,7.1-6.1c1-0.8,2.1-1.6,3.2-2.3c0.5-0.4,1.3-0.8,1.8-0.6c1,0.4,0.5,1.3,0.4,2.1c-0.1,1.4-1.1,3.1,0.6,4.1
			c1.2,0.7,2.1-0.7,2.9-1.5c1.4-1.4,3-2.9,2.1-5.1c-0.5-0.9-1.1-1.7-1.8-2.4c-6.1-7.7-5.8-12.9,1.9-20.5c-1.1,4.1,0.5,6.6,3.2,8.9
			c2.5,2.2,4,5.5,4,8.8c0,1-0.3,2.4,0.9,2.5c1.5,0.1,1.6-1.4,1.8-2.5c0.6-3.2-0.3-6.5-2.5-8.9c-6.1-6.9-8.3-14.3-3.3-22.8
			c0.6-1,1-2.1-0.3-3.1c-0.7-0.5-3.1,0.3-1.8-1.7c0.8-1.1,2.3-1.3,3.4-0.4c0.2,0.2,0.4,0.3,0.5,0.6c0.9,1.3,1.6,2.6,2.2,4
			c1-1.7-0.2-3.1-0.4-4.5c-0.6-3.4-0.6-6.8,2.5-9c1.2-0.8,3.6-4.3,4.5,0.9c0.4,2.1,3.3,2.1,4.9,0.3c2.6-2.6,3.9-6.3,3.7-10
			c-0.4-4.1-3.7-4.4-7.2-3.8c5.2-2.9,8.9-2.1,12.3,2.3c5.5,7,4.5,18.2-2.4,26.2c-1.7,2-3.7,3.8-4.6,6.5c-1.1,3.2-0.8,6,2.4,9.7
			c-1-4.4-1.4-7.5-0.3-10.6c1.3-3.7,3.7-5.9,7.9-5.2c1.3,0.2,2.7,0.8,3,2.3c0.4,2.2-1.7,0.8-2.3,1.4c-2.2,1.7-2.9,4.7-1.8,7.2
			c1.2,3,3.4,5.4,6.6,5.3c2.6-0.1,3.2-2.8,2.2-5c-4.7-10.2-4-21.4-6.1-32.8c2.9,3.9,3.4,3,4-0.7c0.7-3.4,0.4-7-0.8-10.3
			c3.4,2,4.1,5.3,4.8,8.8c0.3,1.8,0.5,3.7,2,4.9c0.1,0.1,0.7-0.1,0.8-0.3c1.3-2,0.5-4-0.5-5.7c-2.5-4.7-4.8-9.5-5.1-15
			c-0.4-7.5,3.7-15.2,9.6-17.9c2.2-1,4.3-1,5.8,1.1c1,1.2,0.8,3-0.5,4c0,0,0,0-0.1,0c-0.5,0.3-1.1,0.5-1.7,0.6c0-0.4,0-0.9,0.1-1.3
			c0.3-0.7,1.1-1.6-0.2-1.8c-0.8,0-1.6,0.3-2.1,0.9c-1.6,1.6-1.2,3.4,0.1,4.9c1.5,2,4.2,2.5,6.3,1.3c5.3-2.4,7.5-7.4,6-13.8
			c-1.2-5-2.6-10-3.5-15.1c-1.3-7.8-1.6-15.6,2.2-23c4-7.8,11.7-10.6,19.8-7.5c6.7,2.7,9.9,10.3,7.2,16.9c-0.6,1.6-1.6,3-2.7,4.2
			c-3.3,3.3-7.1,3.7-10.9,1.4s-5.6-5.7-4.3-10.2c1.3-4.6,4.4-5.4,8.5-2.3l0,0c-2.5-0.2-5.6-1.8-6.8,1.9c-1.1,3.2-0.5,6.4,2.4,8.5
			s6.3,2.4,9.2,0c5.8-4.6,4.3-15-2.5-18c-8.3-3.6-16.3-0.1-18.9,8.9c-3.4,11.5-0.9,22.8,2.7,33.8c3.1,9.5,5.8,19.1,6.9,29.1
			c2.4,22.9-5.8,41.8-21.9,57.6c-2.3,2.2-4.7,4.2-7.9,7.1c2.6-0.3,4.3-0.5,5.9-0.7c47.4-4.1,88.5,9.5,121.9,44
			c9.9,9.9,17.1,22.3,20.9,35.8L704.3,258.2z M427.3,202.2l0.3-0.1L427.3,202.2l-1,1.1l-1,0.9l-1.1,0.9c-0.1,0.8-0.3,1.6-0.5,2.4
			l-1.4,0.9c-0.4,0.6-0.8,1.3-1.1,1.9l-0.2,0.1l0.3-0.1c0.3-0.7,0.6-1.3,0.9-2l1.4-0.8c0.1-0.8,0.3-1.6,0.4-2.4
			c0.7,0.1,1.1-0.1,1.1-0.9c0.6,0,1-0.2,1-0.9L427.3,202.2z M504.3,243.1l-0.1,0.2C504.2,243.2,504.2,243.1,504.3,243.1l-0.2-0.2
			L504.3,243.1z M232.2,327.4l-1.9-1.1c-0.4-1-1.3-1-2.2-1c-0.3-1-1.1-0.9-1.9-0.9c-0.1,0-0.2,0.3-0.3,0.5l2.3,0.3l2.2,1l1.9,1.3
			h0.2L232.2,327.4z M501.3,241.2l-0.3-0.3C501.1,241,501.2,241.1,501.3,241.2l0.2,0.2L501.3,241.2z M413.4,139.4l0.3-0.6l-0.2,0.8
			c-0.8,0.8-1.2,1.9-0.9,3c-1.4,1.1-1,2.6-1,4c-0.3,0.3-0.6,0.8-0.8,1.2c-0.1,0.6-0.1,1.3-0.1,1.9l0.4-1.8c0.1-0.5,0.2-0.9,0.4-1.4
			c0.3-1.3,0.7-2.6,1-4C412.8,141.4,413.1,140.4,413.4,139.4z M398.9,249.7l0.8,1.1l0.4-0.5L398.9,249.7l-0.1-1.7L398.9,249.7z
			 M72,175.1l0.3,0.1l-0.2-0.2c-1.1,1.8-3.2,2.4-4.4,4C69.6,178.2,72.1,178.1,72,175.1z M412.1,119.1l0.3-0.1h-0.2
			c-6.6,11.5-8.2,23.6-4.3,36.3c-0.7-6.4-0.7-12.9,0-19.4C408.6,130.1,411.1,124.8,412.1,119.1z M188.8,357.7
			c-17.3-9.9-32.1-23.7-43.1-40.3c-1.5-2.3-3.4-2.9-5.4-1.6s-6.2,0.1-4.9,4.9c0.6,2-1.5,2.8-3.2,3c-1.4,0.2-3.3-0.1-3.9-1.7
			c-0.7-2,1.2-2.3,2.5-3c3.1-1.5,5.6-4.2,9.1-5c0.9-0.2,2.4-0.5,2.2-1.5c-0.3-1.5-1.9-0.9-3-0.8c-8.7,0.8-17,3-25.3,5.5
			c-3.1,0.9-2,1.7-0.4,3C136.1,337.3,161.6,350,188.8,357.7z M199.1,358.3c-4.6-8-8.6-15.4-13.1-22.6c-3.9-6.2-8.9-11.3-16.2-13.4
			c-1.3-0.4-3-0.9-3.8,0.3s0.6,2.3,1.4,3.3c1.1,1.3,2.1,2.6,3,3.9c0.4,0.5,0.7,1.3,0,1.7c-0.3,0.2-1-0.1-1.3-0.4
			c-2.9-2.4-5.7-5.2-4.9-9.2c0.7-3.5,4.3-1.2,6.7-1.9c-4.6-3-9.8-4.9-15.2-5.6c-1.1-0.2-2.8-0.3-3.3,0.3c-0.8,0.9,0.5,2.1,1.1,3.1
			c7.5,12.3,17.3,22.9,29,31.4C187.7,352.8,193.3,355.9,199.1,358.3z M137.7,309.6c-9.6-0.3-19.1,1.4-28.7,2.3
			c-1.2,0.1-3.6-0.6-3.5,1.3c0.1,1.1,2.2,2.3,3.6,3c0.7,0.4,1.9,0,2.8-0.3C120.4,312.9,129,311.1,137.7,309.6z M646.7,255.1
			c0.3,3.1,1.9,5.2,5.2,5.3c2.3,0.3,4.4-1.4,4.7-3.7c0-0.3,0-0.6,0-0.8c0-3.4-2.1-5.3-5.6-5.6S647.1,252.4,646.7,255.1L646.7,255.1z
			 M539.4,254.3c2.3-0.2,3.7-1.5,3.7-3.9c0.2-2.1-1.4-4-3.5-4.2c-0.2,0-0.3,0-0.5,0c-2.5-0.1-3.5,1.8-3.7,3.9
			C535.4,252.6,536.8,254.1,539.4,254.3L539.4,254.3z M526.2,237c1.7-0.3,2.9-1.7,3-3.4c0.1-2.1-1-3.6-3.2-3.7
			c-2-0.1-3.1,1.4-3.1,3.2C522.9,235.2,524.2,236.5,526.2,237z M552.2,121.3c-0.2,3-0.3,5.3,1.6,7c0.1,0.1,0.7-0.2,0.8-0.4
			C555.8,125.4,554.3,123.6,552.2,121.3L552.2,121.3z M74.4,162.4c0.2,0.5,0.3,1,0.4,1c0.6,0,1.3-0.1,1.9-0.4c0.6-0.5,0-0.8-0.4-0.8
			C75.7,162.3,75.1,162.3,74.4,162.4z M400.9,255.2l-0.2-0.6c-0.1,0.1-0.1,0.3-0.1,0.4c0.1,0.2,0.1,0.4,0.2,0.6
			C400.8,255.5,400.9,255.4,400.9,255.2z"/>
		<path class="st0" d="M165.5,60.7c7.3-6.2,11.4-13.7,14.7-22c3.2-8,9.1-14.3,16-19.4c9.7-6.8,22.6-6.8,32.3,0
			c1.8,1.3,2.6,2.2-0.2,3.1c-2.5,0.9-3.5,3-3.8,5.4c-0.3,2.2-1.1,4.2-2.4,6c-1,1.6-3.2,3.7-4.1,3.2c-4.3-2.6-8.3,2.6-12.5-0.2
			c-1.8-1.2-4.1-0.4-6.5,0.2c2.7,1.8,6.2,2.5,7.8,5.5c0.9,1.6,3.6,4.6-1.7,4c-1.6-0.1-3,0.7-3.7,2.1c-2.9,4.6-6.9,4.5-11.4,3
			c-4-1.3-3.8-1.2-4.7,2.7c-0.6,2.3-3,3.9-5.1,2.8c-3.7-1.8-6.1,0-8.9,1.7C170,59.7,168.3,60.8,165.5,60.7z"/>
		<path class="st0" d="M170.8,72.4c3.6-1.9,5.9-4.3,8.6-6.1c3.2-2,5.1-1.3,7.5,0.2c1,0.6,1.8,2,2.7,2.1c7,0.6,2.9,3.9,1.5,6.1
			c-5.6,8.2-15.3,10.2-26.4,5.8c-6.3-2.5-11.3-7.9-18.4-8.5c-0.3,0-0.5-0.6-0.8-1c0.4-0.3,0.8-0.8,1.1-0.8c3.1,0.1,5.8-0.5,7.9-3.1
			c0.1-0.1,0.4-0.2,0.5-0.1c4.5,4.3,6.1-1.3,9-2.6c2.7-1.2,5.4,1.8,8.1-0.4c0.5-0.4,1.2,1.3,1.2,2.3
			C173.2,68.3,171.8,69.7,170.8,72.4z"/>
		<path class="st0" d="M598.4,155.8c-5.1-0.8-8.1-4.2-8-8.9c0.2-5.4,4.5-9.8,9.8-10.1c5.2-0.4,9.9,3,11,8.1c1.3,6.2-2.2,11.5-8,12
			c-0.6,0.1-1.6,0-1.8-0.3c-0.5-1.1,0.5-1.2,1.2-1.6c1-0.6,1.9-1.3,2.7-2.2c1.9-2.3,1.8-5.6-0.2-7.8c-1.6-2.1-4.5-2.6-6.8-1.3
			c-2.6,1.4-3.6,3.7-3.2,6.7C595.4,152.7,597.4,153.9,598.4,155.8z"/>
		<path class="st0" d="M570.9,310.9c5.4-11,6.1-22.2,0.8-33.4c-0.8-1.7-1.6-3.4,0.8-4.6c2.5-1.4,4.5-0.8,6,1.5
			c2.7,4.3,3.1,9,2.5,13.9c-1,8.6-5.1,16-9.3,23.3L570.9,310.9z"/>
		<path class="st0" d="M339.5,242c0.5,0.7,0.9,1.3,1.3,2c1.7,2.5,1.9,5-0.7,7s-5.1,1.3-7.2-0.7s-2.5-4.8-0.5-7.2
			c2.5-3.1,5.8-3.8,9.4-2c4,2,5.8,5.4,4.8,9.9c-1.3,5.2-5.9,8.9-11.3,9c-6.1-0.2-11.2-4.6-12.2-10.6c-1.2-7.3,2-12.5,7.8-16.5
			l0.6,0.7c-3,3.1-5.9,6.3-6.9,10.7c-0.9,4.9,1.2,9.8,5.4,12.4c4.2,2.5,8.3,2,11.9-1.1C347.3,250.9,346.1,244.7,339.5,242
			c-0.2,0.1-0.2,0.1-0.3,0.1L339.5,242z M334.6,248.3c0.3,1.2,1,2.1,2.3,1.9c1.2,0,2.1-1,2.1-2.1c0,0,0-0.1,0-0.1c0-1.1-0.9-2-2-2
			c-0.1,0-0.2,0-0.3,0C335.5,246.1,334.6,247.1,334.6,248.3L334.6,248.3z"/>
		<path class="st0" d="M623,132.3c0-4.1,3.1-7.5,7.1-7.9c4-0.3,7.5,2.5,8.1,6.5c0.5,3.9-0.9,6.9-4.8,8.1c-0.6,0.2-1.6,0.3-1.8,0
			c-0.8-1,0.4-1.3,1-1.7c2.6-2,3-4.4,1-6.8c-1.2-1.6-3.4-1.9-5-0.8c-0.1,0.1-0.2,0.2-0.3,0.3c-2.4,1.9-2.4,4.1-0.8,6.6
			c0.4,0.5,1.7,1,0.6,1.8c-0.3,0.2-1.3-0.1-1.8-0.5C624.4,136.4,622.8,134.7,623,132.3z"/>
		<path class="st0" d="M136,24.5c-1.8-0.8-3.7-1.5-5.6-2.1c-1.7-0.4-3.6-0.5-5.3-0.9c4.1-0.5,8.1-0.8,11.5,2.3L136,24.5z"/>
		<path class="st0" d="M129.2,101.3l-0.5-2.3h0.4c0,0.8,0,1.6,0,2.4L129.2,101.3z"/>
		<path class="st0" d="M593.2,38.2l0.8,0.8l-0.4,0.2L593.2,38.2L593.2,38.2z"/>
		<polygon class="st0" points="389.3,219.3 389.3,219 389.2,219.2 		"/>
		<path class="st0" d="M389.2,219.2l-0.6,1.4l-0.7-0.7C388.3,219.3,388.6,218.9,389.2,219.2L389.2,219.2z"/>
		<path class="st0" d="M593.3,38.2c-0.7,0.1-1-0.3-1.1-1l0,0C593,37.2,593.3,37.6,593.3,38.2L593.3,38.2z"/>
	</g>
</g>
</svg>
