<?xml version="1.0" standalone="no"?>
<!DOCTYPE svg PUBLIC "-//W3C//DTD SVG 20010904//EN"
 "http://www.w3.org/TR/2001/REC-SVG-20010904/DTD/svg10.dtd">
<svg version="1.0" xmlns="http://www.w3.org/2000/svg"
 width="256.000000pt" height="256.000000pt" viewBox="0 0 256.000000 256.000000"
 preserveAspectRatio="xMidYMid meet">
<metadata>
Created by potrace 1.11, written by Peter Selinger 2001-2013
</metadata>
<g transform="translate(0.000000,256.000000) scale(0.100000,-0.100000)"
fill="#000000" stroke="none">
<path d="M1058 2253 c-42 -26 -68 -81 -63 -136 3 -42 35 -114 68 -158 23 -29
122 -104 163 -122 l41 -19 54 27 c103 52 198 170 212 263 13 80 -49 162 -121
162 -41 0 -110 -28 -130 -52 -11 -14 -18 -12 -63 18 -58 39 -116 45 -161 17z"/>
<path d="M737 1884 c-1 -1 -23 -4 -49 -7 -107 -13 -283 -84 -360 -145 -63 -50
-135 -124 -174 -179 -51 -70 -117 -209 -129 -268 -5 -22 -10 -47 -12 -55 -9
-33 -10 -234 -1 -283 58 -318 311 -575 632 -644 100 -21 287 -13 381 17 80 25
175 71 223 107 l32 24 33 -24 c63 -48 214 -112 285 -123 20 -3 44 -7 52 -10
29 -11 202 -4 269 10 315 66 569 323 625 631 13 75 14 248 2 304 -57 256 -223
467 -448 570 -61 28 -92 39 -113 42 -5 1 -19 5 -31 9 -30 12 -119 23 -194 24
-143 3 -332 -54 -436 -131 -17 -13 -36 -23 -42 -23 -6 0 -36 15 -65 34 -58 37
-153 79 -207 92 -19 4 -37 8 -40 9 -51 14 -223 28 -233 19z m163 -229 c57 -11
51 -10 80 -19 38 -12 102 -42 125 -59 20 -15 20 -15 -1 -39 -49 -56 -105 -192
-129 -311 -13 -70 -14 -223 -1 -287 17 -82 60 -192 102 -260 49 -81 51 -74
-26 -114 -208 -108 -486 -59 -659 115 -106 106 -162 234 -167 381 -14 371 316
660 676 593z m1007 -9 c209 -59 370 -226 418 -436 23 -104 14 -227 -25 -328
-92 -238 -312 -382 -565 -369 -49 2 -103 7 -120 11 -34 7 -175 74 -175 82 0 3
13 24 28 47 50 74 96 186 118 288 2 13 7 67 9 120 6 154 -33 305 -114 439 -45
74 -45 74 39 112 117 53 269 67 387 34z m-587 -309 c59 -123 72 -288 33 -422
-10 -36 -65 -145 -72 -145 -13 0 -63 108 -81 174 -16 61 -20 208 -6 265 18 78
70 191 88 191 5 0 22 -28 38 -63z"/>
</g>
</svg>
